<?xml version="1.0" encoding="utf-8"?>
<!-- Generator: Adobe Illustrator 19.0.1, SVG Export Plug-In . SVG Version: 6.00 Build 0)  -->
<svg version="1.1" id="Layer_1" xmlns="http://www.w3.org/2000/svg" xmlns:xlink="http://www.w3.org/1999/xlink" x="0px" y="0px"
	 viewBox="0 0 426.9 263.5" style="enable-background:new 0 0 426.9 263.5;" xml:space="preserve">
<style type="text/css">
	.st0{fill:#FFFFFF;}
</style>
<g>
	<g>
		<path class="st0" d="M285,163c-5.2,0-10.2,0.6-14.9,1.7v-10.1h-14.8v1.9h1.5c1.6,0,3.4,0.1,3.4,3.4v8.2c-3.6,1.7-7,3.7-10,6v-45.1
			h-14.8v1.9h1.5c1.6,0,3.4,0.1,3.4,3.4v23.8c-1.8-3-5-4.2-7.9-4.2c-11.5,0-19.1,13.8-19.1,28.2c0,14.3,6.7,26.8,17.9,26.8
			c1.4,0,6.6-0.5,9-5.2v4.6h14.2v-2h-1.2c-1.4,0-3.2-0.2-3.2-3.5v-27.3c3-2.4,6.3-4.6,10-6.3v33.5c0,3.3-1.6,3.5-3.3,3.5h-1.3v2
			h18.6v-2h-1.2c-1.8,0-3-1.1-3-3.5v-37.1c4.7-1.2,9.6-1.8,14.8-1.8c28.2,0,47.9,18.2,47.9,44.3c0,28.4-23.4,48.3-57.5,48.3
			c-36.8,0-59.5-21.6-82.3-46.9c-2.9-3.2-6-6.6-8.8-9.4c5.2-8.8,8.2-19.7,8.2-31.9c0-17-5.1-29.3-13.2-37.5c4-2.3,6.6-6.3,6.6-11.7
			c0-5.3-3.1-11.7-11.6-11.7c-5.6,0-9.8,3.5-9.8,7.8c0,2.6,2,4.7,4.4,4.7c1.1,0,2.6-0.7,3-1.5c-1.2,0-2.8-1.3-2.8-3.1
			c0-3.5,3.5-5.2,6.3-5.2c5.7,0,8.8,4.9,8.8,10.1c0,4.3-2.3,7.9-5.7,9.9c-8.6-8.2-20.4-12.1-33.2-12.3c-0.9-0.7-1.7-1.4-2.6-2
			c3-5.1,5.5-10.6,7.5-15.8c2.7-6.9,6.3-18.7,11.8-38.1c0.7-1.8,2.1-2,4.6-2v-1.4h-10.8v1.4c1.7,0,3.4,0.1,3.4,1.9
			c0,0.5-6.7,24.1-7.4,26.9l-6.6-26.9c0-1.8,1.9-1.9,3.6-1.9v-1.4H133v1.4c2.2,0,3.6,0.1,4.3,2l10.7,37.2
			c-2.7,7.4-4.1,10.6-6.7,15.5l-1.2-0.8c-10.2-7.1-20.5-11.9-31.2-11.9c-6.5,0-13.2,2.1-17.5,6.3c-9.4-1.5-17.6-8.2-30.7-8.6
			c3.6-1,7.2-4.4,7.2-11.4V38.9c0-1.8,0.1-4.4,3.5-4.4h0.4v-1.4H55.2v1.4h0.6c3.7,0,3.7,2.6,3.7,4.4v51c0,3.5-0.4,8-3.6,9.6
			c-1.7,0.9-2.8,1.1-2.8,1.1l0.3,1.2c1.4-0.4,2.4-0.5,4-0.5c13.4,0,19.4,11,30,13.6c-0.3,1.3-0.5,2.6-0.5,4
			c0,10.9,10.1,17.2,21.3,18c-1.8,3.4-2.8,7.2-2.8,11.4c0,9,6.8,17.5,15.7,17.5c7.5,0,11.8-4,11.8-8.7c0-2.7-2.2-4.8-4.6-4.8
			c-1.6,0-3.3,0.7-4.2,2.1c1.3,0.2,2.6,1.4,2.6,4.1c0,2.7-1.9,4.9-6,4.9c-6.7,0-12.5-6.1-12.5-15.4c0-4,1.1-7.8,2.9-11.1
			c13-0.2,22-7.4,28.5-16.4c0.5,0,1-0.1,1.5-0.1c9,6.7,17.6,12.8,28.6,12.8c0.6,0,1.2,0,1.8-0.1c6.6,9.2,9.2,22.7,9.2,38.2
			c0,7.4-0.8,15.4-2.9,22.6c-7.3-6.7-14.3-11.5-22-13.6v-49h-2.1c-0.4,6.4-7,8.7-13.1,8.9v2c4,0,4.3,3.4,4.3,6.1v31.1
			c-10.8,0.9-21.9,6.9-21.9,20.3c0,12.8,10.7,21.8,26.4,21.8c14.4,0,26.5-7.7,34.2-20.2l7.5,8.2c24.5,26.7,47.9,53,84.8,53
			c33.7,0,58.2-23.2,58.2-53.5C334.1,181.6,314.2,163,285,163z M232.1,206.5c-8,0-8.1-15.2-8.1-23.4c0-19,4-26.8,9.5-26.8
			c4.2,0,6.2,4.2,7,8.8v19.8c-0.9,1.3-1.6,2.6-2.3,4l0.9,0.6c0.4-0.8,0.9-1.7,1.4-2.5v5.4C240.5,197.7,240,206.5,232.1,206.5z
			 M88,119.1c0-1.4,0.2-2.7,0.5-4c1.1,0.2,2.3,0.3,3.5,0.3c10.6,0,12.7-8.3,13.5-11.5l-0.5-0.4c-1.1,2-4.4,5.1-9.9,5.1
			c-0.9,0-1.7-0.1-2.5-0.2c3.7-3.4,9.1-5.1,14.2-5.1c11.4,0,22.4,8.1,30.1,13.9l1.4,1c-12.4,1.8-24.1,8-29.6,17.7
			C98.8,135.5,88,130,88,119.1z M111.8,136c5-8,14.9-13.5,25.6-15.1C131.3,129.3,123.2,135.5,111.8,136z M148.6,120.6
			c9.7,1,16.8,5,21.9,11.2C162,131.3,155.1,126,148.6,120.6z M148.5,219.4c-13.5,0-23.8-7.7-23.8-19.6c0-12,9.7-18.3,20.2-19.2v19.6
			c0,2.8-0.2,6.2-4.6,6.2h-1.4v2h22.3v-2H160c-4.1,0-4.2-3.4-4.2-6.2v-18.6c7.6,2.1,14.6,7,21.7,13.6
			C173.3,208.5,164.6,219.4,148.5,219.4z"/>
		<path class="st0" d="M285,163c-5.2,0-10.2,0.6-14.9,1.7v-10.1h-14.8v1.9h1.5c1.6,0,3.4,0.1,3.4,3.4v8.2c-3.6,1.7-7,3.7-10,6v-45.1
			h-14.8v1.9h1.5c1.6,0,3.4,0.1,3.4,3.4v23.8c-1.8-3-5-4.2-7.9-4.2c-11.5,0-19.1,13.8-19.1,28.2c0,14.3,6.7,26.8,17.9,26.8
			c1.4,0,6.6-0.5,9-5.2v4.6h14.2v-2h-1.2c-1.4,0-3.2-0.2-3.2-3.5v-27.3c3-2.4,6.3-4.6,10-6.3v33.5c0,3.3-1.6,3.5-3.3,3.5h-1.3v2
			h18.6v-2h-1.2c-1.8,0-3-1.1-3-3.5v-37.1c4.7-1.2,9.6-1.8,14.8-1.8c28.2,0,47.9,18.2,47.9,44.3c0,28.4-23.4,48.3-57.5,48.3
			c-36.8,0-59.5-21.6-82.3-46.9c-2.9-3.2-6-6.6-8.8-9.4c5.2-8.8,8.2-19.7,8.2-31.9c0-17-5.1-29.3-13.2-37.5c4-2.3,6.6-6.3,6.6-11.7
			c0-5.3-3.1-11.7-11.6-11.7c-5.6,0-9.8,3.5-9.8,7.8c0,2.6,2,4.7,4.4,4.7c1.1,0,2.6-0.7,3-1.5c-1.2,0-2.8-1.3-2.8-3.1
			c0-3.5,3.5-5.2,6.3-5.2c5.7,0,8.8,4.9,8.8,10.1c0,4.3-2.3,7.9-5.7,9.9c-8.6-8.2-20.4-12.1-33.2-12.3c-0.9-0.7-1.7-1.4-2.6-2
			c3-5.1,5.5-10.6,7.5-15.8c2.7-6.9,6.3-18.7,11.8-38.1c0.7-1.8,2.1-2,4.6-2v-1.4h-10.8v1.4c1.7,0,3.4,0.1,3.4,1.9
			c0,0.5-6.7,24.1-7.4,26.9l-6.6-26.9c0-1.8,1.9-1.9,3.6-1.9v-1.4H133v1.4c2.2,0,3.6,0.1,4.3,2l10.7,37.2
			c-2.7,7.4-4.1,10.6-6.7,15.5l-1.2-0.8c-10.2-7.1-20.5-11.9-31.2-11.9c-6.5,0-13.2,2.1-17.5,6.3c-9.4-1.5-17.6-8.2-30.7-8.6
			c3.6-1,7.2-4.4,7.2-11.4V38.9c0-1.8,0.1-4.4,3.5-4.4h0.4v-1.4H55.2v1.4h0.6c3.7,0,3.7,2.6,3.7,4.4v51c0,3.5-0.4,8-3.6,9.6
			c-1.7,0.9-2.8,1.1-2.8,1.1l0.3,1.2c1.4-0.4,2.4-0.5,4-0.5c13.4,0,19.4,11,30,13.6c-0.3,1.3-0.5,2.6-0.5,4
			c0,10.9,10.1,17.2,21.3,18c-1.8,3.4-2.8,7.2-2.8,11.4c0,9,6.8,17.5,15.7,17.5c7.5,0,11.8-4,11.8-8.7c0-2.7-2.2-4.8-4.6-4.8
			c-1.6,0-3.3,0.7-4.2,2.1c1.3,0.2,2.6,1.4,2.6,4.1c0,2.7-1.9,4.9-6,4.9c-6.7,0-12.5-6.1-12.5-15.4c0-4,1.1-7.8,2.9-11.1
			c13-0.2,22-7.4,28.5-16.4c0.5,0,1-0.1,1.5-0.1c9,6.7,17.6,12.8,28.6,12.8c0.6,0,1.2,0,1.8-0.1c6.6,9.2,9.2,22.7,9.2,38.2
			c0,7.4-0.8,15.4-2.9,22.6c-7.3-6.7-14.3-11.5-22-13.6v-49h-2.1c-0.4,6.4-7,8.7-13.1,8.9v2c4,0,4.3,3.4,4.3,6.1v31.1
			c-10.8,0.9-21.9,6.9-21.9,20.3c0,12.8,10.7,21.8,26.4,21.8c14.4,0,26.5-7.7,34.2-20.2l7.5,8.2c24.5,26.7,47.9,53,84.8,53
			c33.7,0,58.2-23.2,58.2-53.5C334.1,181.6,314.2,163,285,163z M232.1,206.5c-8,0-8.1-15.2-8.1-23.4c0-19,4-26.8,9.5-26.8
			c4.2,0,6.2,4.2,7,8.8v19.8c-0.9,1.3-1.6,2.6-2.3,4l0.9,0.6c0.4-0.8,0.9-1.7,1.4-2.5v5.4C240.5,197.7,240,206.5,232.1,206.5z
			 M88,119.1c0-1.4,0.2-2.7,0.5-4c1.1,0.2,2.3,0.3,3.5,0.3c10.6,0,12.7-8.3,13.5-11.5l-0.5-0.4c-1.1,2-4.4,5.1-9.9,5.1
			c-0.9,0-1.7-0.1-2.5-0.2c3.7-3.4,9.1-5.1,14.2-5.1c11.4,0,22.4,8.1,30.1,13.9l1.4,1c-12.4,1.8-24.1,8-29.6,17.7
			C98.8,135.5,88,130,88,119.1z M111.8,136c5-8,14.9-13.5,25.6-15.1C131.3,129.3,123.2,135.5,111.8,136z M148.6,120.6
			c9.7,1,16.8,5,21.9,11.2C162,131.3,155.1,126,148.6,120.6z M148.5,219.4c-13.5,0-23.8-7.7-23.8-19.6c0-12,9.7-18.3,20.2-19.2v19.6
			c0,2.8-0.2,6.2-4.6,6.2h-1.4v2h22.3v-2H160c-4.1,0-4.2-3.4-4.2-6.2v-18.6c7.6,2.1,14.6,7,21.7,13.6
			C173.3,208.5,164.6,219.4,148.5,219.4z"/>
	</g>
	<g>
		<path class="st0" d="M195.6,206.4h-1.3v2H213v-2h-1.2c-1.8,0-3-1.1-3-3.5v-48.2H194v1.9h1.5c1.6,0,3.4,0.1,3.4,3.4v42.9
			C198.9,206.2,197.3,206.4,195.6,206.4z"/>
		<path class="st0" d="M195.6,206.4h-1.3v2H213v-2h-1.2c-1.8,0-3-1.1-3-3.5v-48.2H194v1.9h1.5c1.6,0,3.4,0.1,3.4,3.4v42.9
			C198.9,206.2,197.3,206.4,195.6,206.4z"/>
	</g>
	<g>
		<path class="st0" d="M209.2,143.7c0-3.2-2.7-6.3-6.3-6.3c-3.5,0-6.3,3.2-6.3,6.3c0,4.1,2.8,6.9,6.3,6.9
			C206.5,150.6,209.2,147.8,209.2,143.7z"/>
		<path class="st0" d="M209.2,143.7c0-3.2-2.7-6.3-6.3-6.3c-3.5,0-6.3,3.2-6.3,6.3c0,4.1,2.8,6.9,6.3,6.9
			C206.5,150.6,209.2,147.8,209.2,143.7z"/>
	</g>
	<g>
		<path class="st0" d="M264.3,150.6c3.6,0,6.3-2.8,6.3-6.9c0-3.2-2.7-6.3-6.3-6.3c-3.5,0-6.3,3.2-6.3,6.3
			C258,147.8,260.8,150.6,264.3,150.6z"/>
		<path class="st0" d="M264.3,150.6c3.6,0,6.3-2.8,6.3-6.9c0-3.2-2.7-6.3-6.3-6.3c-3.5,0-6.3,3.2-6.3,6.3
			C258,147.8,260.8,150.6,264.3,150.6z"/>
	</g>
	<g>
		<path class="st0" d="M89.3,75.9c-6.9,3.9-13.7,4.9-13.9,13.7c0,5.7,4.4,10,10.1,10c3,0,5.7-1.1,7.2-2.9v2.4H103v-1.5
			c-2.1,0-2.9-0.8-2.9-2.7v-27c0-7.1-4.4-10.1-10.4-10.1c-6.6,0-12.7,3.1-12.7,7.8c0,2.4,2,3.8,4,3.8s3.5-1.3,3.5-3.5
			c0-1.2-0.6-1.6-0.6-2.8c0-1.2,0.7-3.8,4.4-3.8c4.2,0,4.4,3.7,4.4,6.7v7.2C91.8,74.7,89.3,75.9,89.3,75.9z M92.6,94
			c-0.2,0.9-1.5,2.9-3.8,2.9c-4.5,0-5.9-4.5-5.9-8.1c0-2,0-5.5,2.6-8.2c2.2-2.2,5.3-3.3,7.2-5.5L92.6,94L92.6,94z"/>
		<path class="st0" d="M89.3,75.9c-6.9,3.9-13.7,4.9-13.9,13.7c0,5.7,4.4,10,10.1,10c3,0,5.7-1.1,7.2-2.9v2.4H103v-1.5
			c-2.1,0-2.9-0.8-2.9-2.7v-27c0-7.1-4.4-10.1-10.4-10.1c-6.6,0-12.7,3.1-12.7,7.8c0,2.4,2,3.8,4,3.8s3.5-1.3,3.5-3.5
			c0-1.2-0.6-1.6-0.6-2.8c0-1.2,0.7-3.8,4.4-3.8c4.2,0,4.4,3.7,4.4,6.7v7.2C91.8,74.7,89.3,75.9,89.3,75.9z M92.6,94
			c-0.2,0.9-1.5,2.9-3.8,2.9c-4.5,0-5.9-4.5-5.9-8.1c0-2,0-5.5,2.6-8.2c2.2-2.2,5.3-3.3,7.2-5.5L92.6,94L92.6,94z"/>
	</g>
	<g>
		<path class="st0" d="M117.1,99.5c1.1,0,5-0.4,6.8-3.9v3.5h10.7v-1.5h-0.9c-1.1,0-2.4-0.2-2.4-2.7V39h-11.2v1.4h1.2
			c1.2,0,2.6,0.1,2.6,2.6v18c-1.3-2.3-3.8-3.2-5.9-3.2c-8.7,0-14.5,10.5-14.5,21.4C103.5,90,108.5,99.5,117.1,99.5z M118.6,59.6
			c3.2,0,4.7,3.2,5.3,6.7v20.7c0,4.1-0.4,10.7-6.4,10.7s-6.1-11.5-6.1-17.8C111.4,65.5,114.4,59.6,118.6,59.6z"/>
		<path class="st0" d="M117.1,99.5c1.1,0,5-0.4,6.8-3.9v3.5h10.7v-1.5h-0.9c-1.1,0-2.4-0.2-2.4-2.7V39h-11.2v1.4h1.2
			c1.2,0,2.6,0.1,2.6,2.6v18c-1.3-2.3-3.8-3.2-5.9-3.2c-8.7,0-14.5,10.5-14.5,21.4C103.5,90,108.5,99.5,117.1,99.5z M118.6,59.6
			c3.2,0,4.7,3.2,5.3,6.7v20.7c0,4.1-0.4,10.7-6.4,10.7s-6.1-11.5-6.1-17.8C111.4,65.5,114.4,59.6,118.6,59.6z"/>
	</g>
	<g>
		<path class="st0" d="M171.3,46l12.5,53.2h2.2l7.7-41.5l8.2,41.5h2.2c-0.1,0.4,8.5-38.3,12.8-51.9c5.6-18,13.1-42,33.3-42
			c7.3,0,15.1,3.6,15.1,14.6c0,8.3-5.3,12.5-12.2,12.5c-5.5,0-9.3-3.6-9.3-8.1c0-2.3,1.4-4.4,3.6-4.4c0.3,0,0.7,0.1,1.1,0.2
			c-0.7-1.6-2-2.1-3.5-2.1c-2,0-4.6,2-4.6,5.5c0,5.9,6,10.4,12.7,10.4c9.7,0,14.2-6.7,14.2-14.5c0-9.9-7.6-15.6-17-15.6
			c-23.4,0-31.5,27.1-36.6,44.4c-3.1,10.7-6.2,25.1-7.7,32l-6.3-36.6c-0.3-1.5,0.4-3.1,2.1-3.1h1.2V39h-16.5v1.4h1
			c2.8,0,3.5,3.5,3.9,5.6l0.9,4.7l-5.3,28l-7.5-35.2c-0.4-1.5,0.5-3.1,1.8-3.1h1.1V39h-15.9v1.4h0.8C170.2,40.4,170.8,44,171.3,46z"
			/>
		<path class="st0" d="M171.3,46l12.5,53.2h2.2l7.7-41.5l8.2,41.5h2.2c-0.1,0.4,8.5-38.3,12.8-51.9c5.6-18,13.1-42,33.3-42
			c7.3,0,15.1,3.6,15.1,14.6c0,8.3-5.3,12.5-12.2,12.5c-5.5,0-9.3-3.6-9.3-8.1c0-2.3,1.4-4.4,3.6-4.4c0.3,0,0.7,0.1,1.1,0.2
			c-0.7-1.6-2-2.1-3.5-2.1c-2,0-4.6,2-4.6,5.5c0,5.9,6,10.4,12.7,10.4c9.7,0,14.2-6.7,14.2-14.5c0-9.9-7.6-15.6-17-15.6
			c-23.4,0-31.5,27.1-36.6,44.4c-3.1,10.7-6.2,25.1-7.7,32l-6.3-36.6c-0.3-1.5,0.4-3.1,2.1-3.1h1.2V39h-16.5v1.4h1
			c2.8,0,3.5,3.5,3.9,5.6l0.9,4.7l-5.3,28l-7.5-35.2c-0.4-1.5,0.5-3.1,1.8-3.1h1.1V39h-15.9v1.4h0.8C170.2,40.4,170.8,44,171.3,46z"
			/>
	</g>
	<g>
		<path class="st0" d="M227.1,50.1c0-2.4-2-4.8-4.8-4.8c-2.7,0-4.8,2.4-4.8,4.8c0,3.1,2.1,5.2,4.8,5.2
			C225.1,55.3,227.1,53.2,227.1,50.1z"/>
		<path class="st0" d="M227.1,50.1c0-2.4-2-4.8-4.8-4.8c-2.7,0-4.8,2.4-4.8,4.8c0,3.1,2.1,5.2,4.8,5.2
			C225.1,55.3,227.1,53.2,227.1,50.1z"/>
	</g>
	<g>
		<path class="st0" d="M215.6,59.9h1.2c1.2,0,2.6,0.1,2.6,2.6v32.5c0,2.5-1.2,2.7-2.5,2.7h-1v1.5H230v-1.5h-0.9
			c-1.3,0-2.3-0.8-2.3-2.7V58.4h-11.2L215.6,59.9L215.6,59.9z"/>
		<path class="st0" d="M215.6,59.9h1.2c1.2,0,2.6,0.1,2.6,2.6v32.5c0,2.5-1.2,2.7-2.5,2.7h-1v1.5H230v-1.5h-0.9
			c-1.3,0-2.3-0.8-2.3-2.7V58.4h-11.2L215.6,59.9L215.6,59.9z"/>
	</g>
	<g>
		<path class="st0" d="M250,97.6h-1v1.5h14.1v-1.5h-1c-1.2,0-2.2-0.8-2.2-2.7V68c0-7.1-4.7-10.2-10.4-10.2c-3.5,0-6.5,1.6-7.9,3.6
			v-3h-11.2v1.4h1.2c1.2,0,2.6,0.1,2.6,2.6v32.5c0,2.5-1.2,2.7-2.5,2.7h-1v1.5h14.1v-1.5H244c-1.3,0-2.3-0.8-2.3-2.7v-29
			c0-2.9,2.4-5.4,5.2-5.4c3.9,0,5.6,3.1,5.6,6.8v27.6C252.5,97.4,251.3,97.6,250,97.6z"/>
		<path class="st0" d="M250,97.6h-1v1.5h14.1v-1.5h-1c-1.2,0-2.2-0.8-2.2-2.7V68c0-7.1-4.7-10.2-10.4-10.2c-3.5,0-6.5,1.6-7.9,3.6
			v-3h-11.2v1.4h1.2c1.2,0,2.6,0.1,2.6,2.6v32.5c0,2.5-1.2,2.7-2.5,2.7h-1v1.5h14.1v-1.5H244c-1.3,0-2.3-0.8-2.3-2.7v-29
			c0-2.9,2.4-5.4,5.2-5.4c3.9,0,5.6,3.1,5.6,6.8v27.6C252.5,97.4,251.3,97.6,250,97.6z"/>
	</g>
	<g>
		<path class="st0" d="M274.9,58.4h-11.2v1.4h1.2c1.2,0,2.6,0.1,2.6,2.6v32.5c0,2.5-1.2,2.7-2.5,2.7h-1v1.5h14.1v-1.5h-0.9
			c-1.3,0-2.3-0.8-2.3-2.7L274.9,58.4L274.9,58.4z"/>
		<path class="st0" d="M274.9,58.4h-11.2v1.4h1.2c1.2,0,2.6,0.1,2.6,2.6v32.5c0,2.5-1.2,2.7-2.5,2.7h-1v1.5h14.1v-1.5h-0.9
			c-1.3,0-2.3-0.8-2.3-2.7L274.9,58.4L274.9,58.4z"/>
	</g>
	<g>
		<path class="st0" d="M265.7,50.1c0,3.1,2.1,5.2,4.8,5.2c2.8,0,4.8-2.1,4.8-5.2c0-2.4-2-4.8-4.8-4.8
			C267.8,45.3,265.7,47.7,265.7,50.1z"/>
		<path class="st0" d="M265.7,50.1c0,3.1,2.1,5.2,4.8,5.2c2.8,0,4.8-2.1,4.8-5.2c0-2.4-2-4.8-4.8-4.8
			C267.8,45.3,265.7,47.7,265.7,50.1z"/>
	</g>
	<g>
		<path class="st0" d="M282.2,94.9c0,2.5-1.1,2.7-2.1,2.7h-1v1.5h14.7v-1.5H292c-1.4,0-2.3-0.8-2.3-2.7V60.7h7.5v-2.3h-7.5v-6.6
			c0-6.6,0.1-11.5,4.4-11.5c2.6,0,3.4,2.5,3.4,4.4c0,2.2,1.4,3.6,3.3,3.6c2.2,0,3.1-1.7,3.1-3.6c0-4.3-5.3-5.9-9.3-5.9
			c-8.6,0-12.3,5.3-12.3,12.4v7.1h-4.6v2.3h4.6L282.2,94.9L282.2,94.9z"/>
		<path class="st0" d="M282.2,94.9c0,2.5-1.1,2.7-2.1,2.7h-1v1.5h14.7v-1.5H292c-1.4,0-2.3-0.8-2.3-2.7V60.7h7.5v-2.3h-7.5v-6.6
			c0-6.6,0.1-11.5,4.4-11.5c2.6,0,3.4,2.5,3.4,4.4c0,2.2,1.4,3.6,3.3,3.6c2.2,0,3.1-1.7,3.1-3.6c0-4.3-5.3-5.9-9.3-5.9
			c-8.6,0-12.3,5.3-12.3,12.4v7.1h-4.6v2.3h4.6L282.2,94.9L282.2,94.9z"/>
	</g>
	<g>
		<path class="st0" d="M297.4,58.4v1.4h1.2c1.2,0,2.6,0.1,2.6,2.6v32.5c0,2.5-1.2,2.7-2.5,2.7h-1v1.5h14.1v-1.5h-0.9
			c-1.3,0-2.3-0.8-2.3-2.7V75.2c0-3.8,0.3-12.8,4.7-12.9c1.8,0,2,2.6,4.9,2.6c1.6,0,3.1-1.2,3.1-3.3c0-3.8-4.2-3.8-4.2-3.8
			c-4.2,0-7,3.2-8.5,6.7v-6.1L297.4,58.4L297.4,58.4z"/>
		<path class="st0" d="M297.4,58.4v1.4h1.2c1.2,0,2.6,0.1,2.6,2.6v32.5c0,2.5-1.2,2.7-2.5,2.7h-1v1.5h14.1v-1.5h-0.9
			c-1.3,0-2.3-0.8-2.3-2.7V75.2c0-3.8,0.3-12.8,4.7-12.9c1.8,0,2,2.6,4.9,2.6c1.6,0,3.1-1.2,3.1-3.3c0-3.8-4.2-3.8-4.2-3.8
			c-4.2,0-7,3.2-8.5,6.7v-6.1L297.4,58.4L297.4,58.4z"/>
	</g>
	<g>
		<path class="st0" d="M344.5,77.7c0.8,0,0.8-0.7,0.8-1.3c0-7.8-3.3-18.6-11.9-18.6c-8.8,0-13.9,10.3-13.9,21.2
			c0,10.7,5.4,20.6,14.3,20.6c6.8,0,10-6.7,11.4-12.6h-2.8c-1.1,4.5-3,10.9-8.3,10.9h-0.4c-3.7,0-6.6-3.3-6.6-17v-3.3L344.5,77.7
			L344.5,77.7z M333.3,59.3c3.9,0,4.6,9.2,4.6,15.3c0,0.7-0.3,1.2-1,1.2h-9.8C327.7,64.6,330.1,59.3,333.3,59.3z"/>
		<path class="st0" d="M344.5,77.7c0.8,0,0.8-0.7,0.8-1.3c0-7.8-3.3-18.6-11.9-18.6c-8.8,0-13.9,10.3-13.9,21.2
			c0,10.7,5.4,20.6,14.3,20.6c6.8,0,10-6.7,11.4-12.6h-2.8c-1.1,4.5-3,10.9-8.3,10.9h-0.4c-3.7,0-6.6-3.3-6.6-17v-3.3L344.5,77.7
			L344.5,77.7z M333.3,59.3c3.9,0,4.6,9.2,4.6,15.3c0,0.7-0.3,1.2-1,1.2h-9.8C327.7,64.6,330.1,59.3,333.3,59.3z"/>
	</g>
	<g>
		<path class="st0" d="M370.4,33.1c-1-2.3-2-4.5-3.2-6.6C357.9,11.2,341.5,1,320.3,1c-16.9,0-25.7,8.3-25.7,16.8
			c0,10.3,12.2,19.2,33.2,19.2c13.6,0,24.5-2.9,36.3-3.2c2.6,7.2,3.8,15.4,3.8,22.6V61c-1.3-2.3-3.8-3.2-5.9-3.2
			c-8.7,0-14.5,10.5-14.5,21.4c0,10.8,5.1,20.3,13.6,20.3c1.1,0,5-0.4,6.8-3.9v3.5h10.7v-1.5h-0.9c-1.1,0-2.4-0.2-2.4-2.7V58.8
			c0-8.3-1.6-17.1-4.5-24.9c28.9,2,54.3,20.6,54.3,52.6c0,25.7-16.8,41.5-37.7,41.5c-7.3,0-18.9-3.4-18.9-12.8
			c0-3.3,2.4-7.8,6.5-7.9v-0.4c-5.6-0.4-10.7,2.7-10.7,8.6c0,9.2,11.4,13.7,23,13.7c17.9,0,38.7-13.4,38.7-42.9
			C425.9,55.4,401.1,35.1,370.4,33.1z M328,36.2c-12.1,0-30.3-3.5-30.3-18.1c0-12.5,12.7-16.2,23.2-16.2c19.6,0,33.7,11.8,41.1,27.2
			c0.6,1.3,1.2,2.7,1.7,4C351.8,33.2,343,36.2,328,36.2z M367.9,86.9c0,4.1-0.4,10.7-6.4,10.7s-6.1-11.5-6.1-17.8
			c0-14.4,3-20.3,7.2-20.3c3.2,0,4.7,3.2,5.3,6.7L367.9,86.9L367.9,86.9z"/>
		<path class="st0" d="M370.4,33.1c-1-2.3-2-4.5-3.2-6.6C357.9,11.2,341.5,1,320.3,1c-16.9,0-25.7,8.3-25.7,16.8
			c0,10.3,12.2,19.2,33.2,19.2c13.6,0,24.5-2.9,36.3-3.2c2.6,7.2,3.8,15.4,3.8,22.6V61c-1.3-2.3-3.8-3.2-5.9-3.2
			c-8.7,0-14.5,10.5-14.5,21.4c0,10.8,5.1,20.3,13.6,20.3c1.1,0,5-0.4,6.8-3.9v3.5h10.7v-1.5h-0.9c-1.1,0-2.4-0.2-2.4-2.7V58.8
			c0-8.3-1.6-17.1-4.5-24.9c28.9,2,54.3,20.6,54.3,52.6c0,25.7-16.8,41.5-37.7,41.5c-7.3,0-18.9-3.4-18.9-12.8
			c0-3.3,2.4-7.8,6.5-7.9v-0.4c-5.6-0.4-10.7,2.7-10.7,8.6c0,9.2,11.4,13.7,23,13.7c17.9,0,38.7-13.4,38.7-42.9
			C425.9,55.4,401.1,35.1,370.4,33.1z M328,36.2c-12.1,0-30.3-3.5-30.3-18.1c0-12.5,12.7-16.2,23.2-16.2c19.6,0,33.7,11.8,41.1,27.2
			c0.6,1.3,1.2,2.7,1.7,4C351.8,33.2,343,36.2,328,36.2z M367.9,86.9c0,4.1-0.4,10.7-6.4,10.7s-6.1-11.5-6.1-17.8
			c0-14.4,3-20.3,7.2-20.3c3.2,0,4.7,3.2,5.3,6.7L367.9,86.9L367.9,86.9z"/>
	</g>
	<g>
		<g>
			<path class="st0" d="M20.5,78.3V54.3c1.5,0.6,3.5,1.1,5.7,1.1c2.8,0,5.6-1.5,6.2-4l-0.2-0.1c-0.7,1.6-2.2,2.4-4,2.4
				c-7.5,0-13-7-20.6-7c-4.8,0-6.9,2.5-6.9,4.9c0,2.1,1.8,4,4.9,4c1.3,0,3.8-0.5,5-2.7l-0.3-0.2c-1.2,2.1-3.5,2.5-4.7,2.5
				c-2.9,0-4.2-1.7-4.2-3.3C1.5,50,3,48.4,6,48.4c3.5,0,7.2,2.3,11.2,4.3v25.6c0,0.8,0,1.9-1.3,1.9h-0.7v0.6h7.5v-0.6h-0.7
				C20.6,80.2,20.5,79.1,20.5,78.3z"/>
			<path class="st0" d="M36.3,78.3V59.1c0-0.7,0-1.7,1.3-1.7h0.2v-0.6h-6.2v0.6h0.2c1.4,0,1.4,1,1.4,1.7v9.1h-5.3v-9.1
				c0-0.7,0-1.7,1.3-1.7h0.2v-0.6h-6.2v0.6h0.2c1.4,0,1.4,1,1.4,1.7v19.2c0,0.9,0,1.9-1.3,1.9h-0.4v0.6h6.4v-0.6h-0.3
				c-1.2,0-1.2-1-1.2-1.9v-9.3h5.3v9.3c0,0.9-0.1,1.9-1.3,1.9h-0.4v0.6h6.4v-0.6h-0.3C36.3,80.2,36.3,79.2,36.3,78.3z"/>
			<path class="st0" d="M46.2,80h-1.6c-0.3,0-0.9-0.1-0.9-1V68.8h1c1.3,0,2.4,1,2.4,2.5v1.1h0.7v-7.4h-0.7v0.8
				c0,1.5-1.2,2.3-2.4,2.3h-1V57.6h2c2.8,0,3.6,2.1,3.8,4.6h0.6v-5.4H38.7v0.6h0.4c1.4,0,1.4,1,1.4,1.7v19.2c0,0.8-0.1,1.9-1.3,1.9
				h-0.5v0.6h11.9v-6.1H50C49.5,79.6,47.8,80,46.2,80z"/>
		</g>
		<g>
			<path class="st0" d="M20.5,78.3V54.3c1.5,0.6,3.5,1.1,5.7,1.1c2.8,0,5.6-1.5,6.2-4l-0.2-0.1c-0.7,1.6-2.2,2.4-4,2.4
				c-7.5,0-13-7-20.6-7c-4.8,0-6.9,2.5-6.9,4.9c0,2.1,1.8,4,4.9,4c1.3,0,3.8-0.5,5-2.7l-0.3-0.2c-1.2,2.1-3.5,2.5-4.7,2.5
				c-2.9,0-4.2-1.7-4.2-3.3C1.5,50,3,48.4,6,48.4c3.5,0,7.2,2.3,11.2,4.3v25.6c0,0.8,0,1.9-1.3,1.9h-0.7v0.6h7.5v-0.6h-0.7
				C20.6,80.2,20.5,79.1,20.5,78.3z"/>
			<path class="st0" d="M36.3,78.3V59.1c0-0.7,0-1.7,1.3-1.7h0.2v-0.6h-6.2v0.6h0.2c1.4,0,1.4,1,1.4,1.7v9.1h-5.3v-9.1
				c0-0.7,0-1.7,1.3-1.7h0.2v-0.6h-6.2v0.6h0.2c1.4,0,1.4,1,1.4,1.7v19.2c0,0.9,0,1.9-1.3,1.9h-0.4v0.6h6.4v-0.6h-0.3
				c-1.2,0-1.2-1-1.2-1.9v-9.3h5.3v9.3c0,0.9-0.1,1.9-1.3,1.9h-0.4v0.6h6.4v-0.6h-0.3C36.3,80.2,36.3,79.2,36.3,78.3z"/>
			<path class="st0" d="M46.2,80h-1.6c-0.3,0-0.9-0.1-0.9-1V68.8h1c1.3,0,2.4,1,2.4,2.5v1.1h0.7v-7.4h-0.7v0.8
				c0,1.5-1.2,2.3-2.4,2.3h-1V57.6h2c2.8,0,3.6,2.1,3.8,4.6h0.6v-5.4H38.7v0.6h0.4c1.4,0,1.4,1,1.4,1.7v19.2c0,0.8-0.1,1.9-1.3,1.9
				h-0.5v0.6h11.9v-6.1H50C49.5,79.6,47.8,80,46.2,80z"/>
		</g>
		<g>
			<path class="st0" d="M20.5,78.3V54.3c1.5,0.6,3.5,1.1,5.7,1.1c2.8,0,5.6-1.5,6.2-4l-0.2-0.1c-0.7,1.6-2.2,2.4-4,2.4
				c-7.5,0-13-7-20.6-7c-4.8,0-6.9,2.5-6.9,4.9c0,2.1,1.8,4,4.9,4c1.3,0,3.8-0.5,5-2.7l-0.3-0.2c-1.2,2.1-3.5,2.5-4.7,2.5
				c-2.9,0-4.2-1.7-4.2-3.3C1.5,50,3,48.4,6,48.4c3.5,0,7.2,2.3,11.2,4.3v25.6c0,0.8,0,1.9-1.3,1.9h-0.7v0.6h7.5v-0.6h-0.7
				C20.6,80.2,20.5,79.1,20.5,78.3z"/>
			<path class="st0" d="M36.3,78.3V59.1c0-0.7,0-1.7,1.3-1.7h0.2v-0.6h-6.2v0.6h0.2c1.4,0,1.4,1,1.4,1.7v9.1h-5.3v-9.1
				c0-0.7,0-1.7,1.3-1.7h0.2v-0.6h-6.2v0.6h0.2c1.4,0,1.4,1,1.4,1.7v19.2c0,0.9,0,1.9-1.3,1.9h-0.4v0.6h6.4v-0.6h-0.3
				c-1.2,0-1.2-1-1.2-1.9v-9.3h5.3v9.3c0,0.9-0.1,1.9-1.3,1.9h-0.4v0.6h6.4v-0.6h-0.3C36.3,80.2,36.3,79.2,36.3,78.3z"/>
			<path class="st0" d="M46.2,80h-1.6c-0.3,0-0.9-0.1-0.9-1V68.8h1c1.3,0,2.4,1,2.4,2.5v1.1h0.7v-7.4h-0.7v0.8
				c0,1.5-1.2,2.3-2.4,2.3h-1V57.6h2c2.8,0,3.6,2.1,3.8,4.6h0.6v-5.4H38.7v0.6h0.4c1.4,0,1.4,1,1.4,1.7v19.2c0,0.8-0.1,1.9-1.3,1.9
				h-0.5v0.6h11.9v-6.1H50C49.5,79.6,47.8,80,46.2,80z"/>
		</g>
	</g>
	<g>
		<g>
			<path class="st0" d="M190.7,128.3v0.5c1.6,0.2,3.1,0.4,4.7,0.5v-0.5c-0.7-0.1-1.7-0.3-1.6-1.2l1-4.9c1.3,0.2,2.6,0.2,4,0.1l1.3,5
				c0.2,0.7-0.5,1.2-1.4,1.2v0.5c2.2,0,4.3-0.1,6.5-0.2c1-0.1,2.1-0.2,3.1-0.4v-0.5c0,0-0.4,0.1-0.6,0.1c-0.7,0-1.2-0.6-1.2-1.5
				v-13.5c2.9,4.8,5.9,9.6,8.8,14.4l1-0.1v-17.2c0-1,0.2-2.4,1.4-2.5h0.5v-0.4c-0.8,0-3.7,0.2-4.9,0.4v0.4c0.1,0,0.4-0.1,0.6-0.1
				c1.1,0,1.2,1.3,1.2,2.3v10.9l-7.6-12.8c-1.4,0.3-2.8,0.2-4.1,0.4v0.4h0.4c1.3,0,1.6,1.3,1.6,2.5v15c0,0.9-0.3,1.6-0.9,1.6
				c-0.6,0.1-1-0.6-1.2-1.3l-4.8-18.8c0,0-1.6,1-2.6,1.3c0.1,0.5,0.4,1.4,0.4,1.4l-3.4,15.6C192.5,127.9,192.1,128.6,190.7,128.3z
				 M196.7,113.5l1.8,8.5c-1.2,0.2-2.4,0.1-3.5-0.1L196.7,113.5z"/>
			<path class="st0" d="M233,130.8v-0.7c-3.1-0.7-6.3-1-9.4-1c-8.5,0-17.1,2.1-25.6,2.1c-3.2,0-6.3-0.3-9.4-1v0.7
				c3.1,0.7,6.2,1,9.4,1c8.5,0,17.1-2.1,25.6-2.1C226.7,129.8,229.8,130.1,233,130.8z"/>
			<path class="st0" d="M218.9,127.1h-0.2v0.5c1-0.1,2-0.1,3-0.1c1.2,0,2.5,0.1,3.8,0.1c5,0,6.9-5.8,6.9-10.3c0-4.9-3.1-9.8-8-9.8
				c-3.8,0-5.7,0.1-5.7,0.1v0.4h0.2c0.9,0,1.3,0.4,1.3,1.3v16.6C220.2,126.7,219.6,127.1,218.9,127.1z M223.3,108.1h1
				c4.5,0.3,4.8,6.2,4.8,9.8c-0.1,3.1-0.1,9-4.2,9l-0.9-0.1c0,0-0.7,0.1-0.7-1V108.1z"/>
			<path class="st0" d="M233,106c-3.1-0.7-6.2-0.9-9.3-0.9c-8.5,0-17.1,1.8-25.6,1.8c-3.2,0-6.3-0.2-9.4-0.9v0.7
				c3.1,0.7,6.3,0.9,9.4,0.9c8.5,0,17.1-1.8,25.6-1.8c3.1,0,6.2,0.2,9.3,0.9V106z"/>
		</g>
		<g>
			<path class="st0" d="M190.7,128.3v0.5c1.6,0.2,3.1,0.4,4.7,0.5v-0.5c-0.7-0.1-1.7-0.3-1.6-1.2l1-4.9c1.3,0.2,2.6,0.2,4,0.1l1.3,5
				c0.2,0.7-0.5,1.2-1.4,1.2v0.5c2.2,0,4.3-0.1,6.5-0.2c1-0.1,2.1-0.2,3.1-0.4v-0.5c0,0-0.4,0.1-0.6,0.1c-0.7,0-1.2-0.6-1.2-1.5
				v-13.5c2.9,4.8,5.9,9.6,8.8,14.4l1-0.1v-17.2c0-1,0.2-2.4,1.4-2.5h0.5v-0.4c-0.8,0-3.7,0.2-4.9,0.4v0.4c0.1,0,0.4-0.1,0.6-0.1
				c1.1,0,1.2,1.3,1.2,2.3v10.9l-7.6-12.8c-1.4,0.3-2.8,0.2-4.1,0.4v0.4h0.4c1.3,0,1.6,1.3,1.6,2.5v15c0,0.9-0.3,1.6-0.9,1.6
				c-0.6,0.1-1-0.6-1.2-1.3l-4.8-18.8c0,0-1.6,1-2.6,1.3c0.1,0.5,0.4,1.4,0.4,1.4l-3.4,15.6C192.5,127.9,192.1,128.6,190.7,128.3z
				 M196.7,113.5l1.8,8.5c-1.2,0.2-2.4,0.1-3.5-0.1L196.7,113.5z"/>
			<path class="st0" d="M233,130.8v-0.7c-3.1-0.7-6.3-1-9.4-1c-8.5,0-17.1,2.1-25.6,2.1c-3.2,0-6.3-0.3-9.4-1v0.7
				c3.1,0.7,6.2,1,9.4,1c8.5,0,17.1-2.1,25.6-2.1C226.7,129.8,229.8,130.1,233,130.8z"/>
			<path class="st0" d="M218.9,127.1h-0.2v0.5c1-0.1,2-0.1,3-0.1c1.2,0,2.5,0.1,3.8,0.1c5,0,6.9-5.8,6.9-10.3c0-4.9-3.1-9.8-8-9.8
				c-3.8,0-5.7,0.1-5.7,0.1v0.4h0.2c0.9,0,1.3,0.4,1.3,1.3v16.6C220.2,126.7,219.6,127.1,218.9,127.1z M223.3,108.1h1
				c4.5,0.3,4.8,6.2,4.8,9.8c-0.1,3.1-0.1,9-4.2,9l-0.9-0.1c0,0-0.7,0.1-0.7-1V108.1z"/>
			<path class="st0" d="M233,106c-3.1-0.7-6.2-0.9-9.3-0.9c-8.5,0-17.1,1.8-25.6,1.8c-3.2,0-6.3-0.2-9.4-0.9v0.7
				c3.1,0.7,6.3,0.9,9.4,0.9c8.5,0,17.1-1.8,25.6-1.8c3.1,0,6.2,0.2,9.3,0.9V106z"/>
		</g>
		<g>
			<path class="st0" d="M190.7,128.3v0.5c1.6,0.2,3.1,0.4,4.7,0.5v-0.5c-0.7-0.1-1.7-0.3-1.6-1.2l1-4.9c1.3,0.2,2.6,0.2,4,0.1l1.3,5
				c0.2,0.7-0.5,1.2-1.4,1.2v0.5c2.2,0,4.3-0.1,6.5-0.2c1-0.1,2.1-0.2,3.1-0.4v-0.5c0,0-0.4,0.1-0.6,0.1c-0.7,0-1.2-0.6-1.2-1.5
				v-13.5c2.9,4.8,5.9,9.6,8.8,14.4l1-0.1v-17.2c0-1,0.2-2.4,1.4-2.5h0.5v-0.4c-0.8,0-3.7,0.2-4.9,0.4v0.4c0.1,0,0.4-0.1,0.6-0.1
				c1.1,0,1.2,1.3,1.2,2.3v10.9l-7.6-12.8c-1.4,0.3-2.8,0.2-4.1,0.4v0.4h0.4c1.3,0,1.6,1.3,1.6,2.5v15c0,0.9-0.3,1.6-0.9,1.6
				c-0.6,0.1-1-0.6-1.2-1.3l-4.8-18.8c0,0-1.6,1-2.6,1.3c0.1,0.5,0.4,1.4,0.4,1.4l-3.4,15.6C192.5,127.9,192.1,128.6,190.7,128.3z
				 M196.7,113.5l1.8,8.5c-1.2,0.2-2.4,0.1-3.5-0.1L196.7,113.5z"/>
			<path class="st0" d="M233,130.8v-0.7c-3.1-0.7-6.3-1-9.4-1c-8.5,0-17.1,2.1-25.6,2.1c-3.2,0-6.3-0.3-9.4-1v0.7
				c3.1,0.7,6.2,1,9.4,1c8.5,0,17.1-2.1,25.6-2.1C226.7,129.8,229.8,130.1,233,130.8z"/>
			<path class="st0" d="M218.9,127.1h-0.2v0.5c1-0.1,2-0.1,3-0.1c1.2,0,2.5,0.1,3.8,0.1c5,0,6.9-5.8,6.9-10.3c0-4.9-3.1-9.8-8-9.8
				c-3.8,0-5.7,0.1-5.7,0.1v0.4h0.2c0.9,0,1.3,0.4,1.3,1.3v16.6C220.2,126.7,219.6,127.1,218.9,127.1z M223.3,108.1h1
				c4.5,0.3,4.8,6.2,4.8,9.8c-0.1,3.1-0.1,9-4.2,9l-0.9-0.1c0,0-0.7,0.1-0.7-1V108.1z"/>
			<path class="st0" d="M233,106c-3.1-0.7-6.2-0.9-9.3-0.9c-8.5,0-17.1,1.8-25.6,1.8c-3.2,0-6.3-0.2-9.4-0.9v0.7
				c3.1,0.7,6.3,0.9,9.4,0.9c8.5,0,17.1-1.8,25.6-1.8c3.1,0,6.2,0.2,9.3,0.9V106z"/>
		</g>
	</g>
	<g>
		<g>
			<path class="st0" d="M245.1,214.8c3.2,0,4.2,3.4,4.4,5.7h0.9v-6.2c-1.2-0.3-3.2-0.6-5-0.6c-4.3,0-7.4,3.4-7.4,7.6
				c0,8.1,10.4,11.1,10.4,18.8c0,2.1-1.1,4.4-3.9,4.4c-3.2,0-4.9-4.2-5.1-7.2h-0.8v7.6c1.7,0.2,4.1,0.7,5.9,0.7c4.7,0,7-4.3,7-8.3
				c0-8.1-10.3-11.3-10.3-18C241.2,217,242.6,214.8,245.1,214.8z"/>
			<path class="st0" d="M252,244.4h-0.5v0.8h8.2v-0.8h-0.4c-1.6,0-1.6-1.3-1.6-2.4V230h6.8V242c0,1.1-0.1,2.4-1.7,2.4h-0.5v0.8h8.2
				v-0.8h-0.4c-1.6,0-1.6-1.3-1.6-2.4v-24.8c0-0.9,0-2.2,1.7-2.2h0.2v-0.7h-8v0.7h0.3c1.8,0,1.8,1.3,1.8,2.2v11.6h-6.8v-11.6
				c0-0.9,0-2.2,1.7-2.2h0.2v-0.7h-8v0.7h0.3c1.8,0,1.8,1.3,1.8,2.2V242C253.8,243.1,253.7,244.4,252,244.4z"/>
			<path class="st0" d="M280.4,213.7c-5.6,0-9.3,7.3-9.3,15.8c0,8,3.4,16.1,9.3,16.1c5.8,0,9.3-8.4,9.3-16.1
				C289.7,221,286.1,213.7,280.4,213.7z M280.4,244.6c-3,0-4.8-3.5-4.8-14.8c0-11.3,1.9-15,4.8-15c2.9,0,4.8,3.7,4.8,15
				C285.2,241.1,283.3,244.6,280.4,244.6z"/>
			<path class="st0" d="M295.2,215h0.5v-0.7h-8.2v0.7h0.4c1.6,0,1.8,1.8,2.1,2.9l6.4,27.4h1.1l4-21.3l4.2,21.3h1.1l6.4-27.8
				c0.4-1.6,1.2-2.4,2.5-2.5h0.3v-0.7h-6.5v0.7h0.6c1.2,0,1.7,0.7,1.7,1.6c0,0.6-2.6,12.5-4,18.6l-3.2-18.5
				c-0.1-0.8,0.2-1.6,1.1-1.6h0.6v-0.7h-8.5v0.7h0.5c1.4,0,1.8,1.8,2,2.9l0.5,2.4l-2.7,14.4l-3.9-18.1
				C294.1,215.8,294.6,215,295.2,215z"/>
		</g>
		<g>
			<path class="st0" d="M245.1,214.8c3.2,0,4.2,3.4,4.4,5.7h0.9v-6.2c-1.2-0.3-3.2-0.6-5-0.6c-4.3,0-7.4,3.4-7.4,7.6
				c0,8.1,10.4,11.1,10.4,18.8c0,2.1-1.1,4.4-3.9,4.4c-3.2,0-4.9-4.2-5.1-7.2h-0.8v7.6c1.7,0.2,4.1,0.7,5.9,0.7c4.7,0,7-4.3,7-8.3
				c0-8.1-10.3-11.3-10.3-18C241.2,217,242.6,214.8,245.1,214.8z"/>
			<path class="st0" d="M252,244.4h-0.5v0.8h8.2v-0.8h-0.4c-1.6,0-1.6-1.3-1.6-2.4V230h6.8V242c0,1.1-0.1,2.4-1.7,2.4h-0.5v0.8h8.2
				v-0.8h-0.4c-1.6,0-1.6-1.3-1.6-2.4v-24.8c0-0.9,0-2.2,1.7-2.2h0.2v-0.7h-8v0.7h0.3c1.8,0,1.8,1.3,1.8,2.2v11.6h-6.8v-11.6
				c0-0.9,0-2.2,1.7-2.2h0.2v-0.7h-8v0.7h0.3c1.8,0,1.8,1.3,1.8,2.2V242C253.8,243.1,253.7,244.4,252,244.4z"/>
			<path class="st0" d="M280.4,213.7c-5.6,0-9.3,7.3-9.3,15.8c0,8,3.4,16.1,9.3,16.1c5.8,0,9.3-8.4,9.3-16.1
				C289.7,221,286.1,213.7,280.4,213.7z M280.4,244.6c-3,0-4.8-3.5-4.8-14.8c0-11.3,1.9-15,4.8-15c2.9,0,4.8,3.7,4.8,15
				C285.2,241.1,283.3,244.6,280.4,244.6z"/>
			<path class="st0" d="M295.2,215h0.5v-0.7h-8.2v0.7h0.4c1.6,0,1.8,1.8,2.1,2.9l6.4,27.4h1.1l4-21.3l4.2,21.3h1.1l6.4-27.8
				c0.4-1.6,1.2-2.4,2.5-2.5h0.3v-0.7h-6.5v0.7h0.6c1.2,0,1.7,0.7,1.7,1.6c0,0.6-2.6,12.5-4,18.6l-3.2-18.5
				c-0.1-0.8,0.2-1.6,1.1-1.6h0.6v-0.7h-8.5v0.7h0.5c1.4,0,1.8,1.8,2,2.9l0.5,2.4l-2.7,14.4l-3.9-18.1
				C294.1,215.8,294.6,215,295.2,215z"/>
		</g>
		<g>
			<path class="st0" d="M245.1,214.8c3.2,0,4.2,3.4,4.4,5.7h0.9v-6.2c-1.2-0.3-3.2-0.6-5-0.6c-4.3,0-7.4,3.4-7.4,7.6
				c0,8.1,10.4,11.1,10.4,18.8c0,2.1-1.1,4.4-3.9,4.4c-3.2,0-4.9-4.2-5.1-7.2h-0.8v7.6c1.7,0.2,4.1,0.7,5.9,0.7c4.7,0,7-4.3,7-8.3
				c0-8.1-10.3-11.3-10.3-18C241.2,217,242.6,214.8,245.1,214.8z"/>
			<path class="st0" d="M252,244.4h-0.5v0.8h8.2v-0.8h-0.4c-1.6,0-1.6-1.3-1.6-2.4V230h6.8V242c0,1.1-0.1,2.4-1.7,2.4h-0.5v0.8h8.2
				v-0.8h-0.4c-1.6,0-1.6-1.3-1.6-2.4v-24.8c0-0.9,0-2.2,1.7-2.2h0.2v-0.7h-8v0.7h0.3c1.8,0,1.8,1.3,1.8,2.2v11.6h-6.8v-11.6
				c0-0.9,0-2.2,1.7-2.2h0.2v-0.7h-8v0.7h0.3c1.8,0,1.8,1.3,1.8,2.2V242C253.8,243.1,253.7,244.4,252,244.4z"/>
			<path class="st0" d="M280.4,213.7c-5.6,0-9.3,7.3-9.3,15.8c0,8,3.4,16.1,9.3,16.1c5.8,0,9.3-8.4,9.3-16.1
				C289.7,221,286.1,213.7,280.4,213.7z M280.4,244.6c-3,0-4.8-3.5-4.8-14.8c0-11.3,1.9-15,4.8-15c2.9,0,4.8,3.7,4.8,15
				C285.2,241.1,283.3,244.6,280.4,244.6z"/>
			<path class="st0" d="M295.2,215h0.5v-0.7h-8.2v0.7h0.4c1.6,0,1.8,1.8,2.1,2.9l6.4,27.4h1.1l4-21.3l4.2,21.3h1.1l6.4-27.8
				c0.4-1.6,1.2-2.4,2.5-2.5h0.3v-0.7h-6.5v0.7h0.6c1.2,0,1.7,0.7,1.7,1.6c0,0.6-2.6,12.5-4,18.6l-3.2-18.5
				c-0.1-0.8,0.2-1.6,1.1-1.6h0.6v-0.7h-8.5v0.7h0.5c1.4,0,1.8,1.8,2,2.9l0.5,2.4l-2.7,14.4l-3.9-18.1
				C294.1,215.8,294.6,215,295.2,215z"/>
		</g>
	</g>
</g>
</svg>
