<svg xmlns="http://www.w3.org/2000/svg" viewBox="0 0 294.544 526.623"><path d="M88.66 200.672H43.593V91.022h16.54v93.198h28.53v16.452zm32.616-25.202l-4.02 25.202h-17.22l18.64-109.65h22.75l18.378 109.65h-17.39l-3.87-25.203h-17.268zm8.688-59.333l-6.125 43.23h12.25l-6.127-43.23zM225.693 174.42c0 7.234-2.538 13.418-7.614 18.55-5.077 5.136-11.203 7.702-18.38 7.702h-25.99V90.934h25.99c7.234 0 13.375 2.568 18.42 7.7 5.048 5.136 7.57 11.29 7.57 18.466v57.32zm-35.442 9.888h9.98c2.624 0 4.84-.948 6.65-2.844 1.807-1.895 2.712-4.127 2.712-6.695v-57.41c0-2.625-.918-4.87-2.756-6.738-1.837-1.867-4.04-2.8-6.606-2.8h-9.977v76.484zm64.398-29.578l-22.14-63.796h18.202l12.25 39.38 12.165-39.38h18.29l-22.228 63.795v45.94h-16.54v-45.94zM74.724 215.665h8.68l-8.576 54.825h-7.876l-4.716-30.164-4.4 30.164h-7.913l-9.18-54.825h8.664l4.332 29.36 3.98-29.36h8.663L70.71 245l4.014-29.335zM98.84 270.49h-8.27v-54.825h8.27v54.825zm16.45-54.868l10.976 36.875v-36.875h8.27v54.87h-8.882l-11.376-35.136v35.135h-8.27v-54.867h9.283zm34.682 54.868h-8.27v-54.825h8.27v54.825zM165.888 270.49h-8.27v-54.87h23.54v8.314h-15.27v14.964h11.156v8.313h-11.157v23.28zm33.997-54.825c4.61 0 7.992 1.27 10.15 3.807 1.897 2.217 2.846 5.31 2.846 9.276v7.963c0 3.88-1.472 7.164-4.42 9.847l6.127 23.934h-8.942l-5.015-20.65h-5.515v20.65h-8.27v-54.824h13.04zm4.944 13.214c0-3.18-1.577-4.77-4.728-4.77h-4.987v17.544h4.987c1.313 0 2.43-.466 3.348-1.4.92-.933 1.38-2.057 1.38-3.37v-8.006zM221.678 270.49v-54.87h23.54v8.314h-15.27v14.964h11.157v8.313h-11.157v14.966h15.27v8.313h-23.54zm55.22-13.126c0 3.617-1.27 6.71-3.808 9.276s-5.6 3.85-9.188 3.85h-12.996v-54.87h12.996c3.616 0 6.687 1.285 9.21 3.852 2.522 2.567 3.785 5.644 3.785 9.232v28.66zm-17.72 4.944h4.986c1.313 0 2.42-.474 3.326-1.422.903-.947 1.356-2.063 1.356-3.347v-28.706c0-1.312-.46-2.435-1.38-3.37-.918-.932-2.02-1.4-3.303-1.4h-4.987v38.243zM109.99 389.635c0 9.043-3.17 16.773-9.516 23.19-6.345 6.42-14.002 9.626-22.972 9.626H45.015V285.28h32.488c9.042 0 16.718 3.208 23.026 9.624 6.305 6.418 9.46 14.11 9.46 23.082v71.65zm-44.3 12.36h12.47c3.28 0 6.05-1.183 8.312-3.554 2.26-2.367 3.39-5.156 3.39-8.367v-71.758c0-3.283-1.147-6.088-3.445-8.424-2.297-2.33-5.05-3.5-8.26-3.5h-12.47v95.607zm83.2 20.455h-20.675V285.39h20.674v137.06zm83.2-32.815c0 9.043-3.172 16.773-9.517 23.19s-14.002 9.626-22.972 9.626h-32.486V285.28H199.6c9.043 0 16.72 3.208 23.027 9.624 6.307 6.418 9.462 14.11 9.462 23.082v71.65zm-44.302 12.36h12.47c3.282 0 6.053-1.183 8.313-3.554 2.26-2.367 3.394-5.156 3.394-8.367v-71.758c0-3.283-1.15-6.088-3.446-8.424-2.297-2.33-5.05-3.5-8.26-3.5h-12.47v95.607zm83.2 20.455h-20.675V285.39h20.675v137.06z" fill="#f288b7"/><path d="M80.673 280.16c0 5.535-1.758 9.83-5.274 12.885-3.52 3.055-7.554 4.582-12.107 4.582-.577 0-1.24-.072-1.988-.217-.75-.143-1.384-.33-1.902-.56 0 8.876-3.2 16.542-9.598 23-6.398 6.454-13.662 9.683-21.79 9.683-6.687 0-12.25-1.988-16.688-5.967-4.44-3.977-6.658-8.992-6.658-15.045 0-6.396 2.546-11.9 7.642-16.514 5.096-4.61 11.472-6.916 19.13-6.916l.35-.778c.76-1.668 1.256-2.95 1.49-3.842.234-.89.35-1.855.35-2.89 0-1.095-.56-2.692-1.684-4.792-1.125-2.102-1.686-4.043-1.686-5.826 0-1.9.605-3.568 1.816-5.007 1.21-1.438 2.854-2.158 4.93-2.158 2.016 0 3.587.633 4.71 1.9 1.125 1.268 1.687 2.91 1.687 4.925 0 1.555-.534 3.527-1.6 5.918a223.315 223.315 0 0 1-3.33 7.127l-15.91 33.87a20.736 20.736 0 0 0 4.368 2.073c1.527.52 3.156.78 4.885.78 2.48 0 5.102-.317 7.87-.952 2.766-.635 5.187-1.7 7.262-3.2 2.248-1.67 4.15-3.817 5.707-6.44 1.556-2.623 2.42-6.154 2.593-10.594-1.557-1.21-2.998-2.104-4.324-2.68s-2.653-.865-3.978-.865c-1.038 0-1.83.3-2.378.906s-.822 1.37-.822 2.29c0 .81.26 1.413.778 1.817.52.404 1.066.777 1.643 1.123.69.404 1.267.838 1.73 1.3.46.46.69 1.296.69 2.505 0 1.21-.535 2.278-1.6 3.2s-2.264 1.385-3.59 1.385c-2.017 0-3.616-.736-4.8-2.205-1.18-1.47-1.77-3.5-1.77-6.095 0-4.15 1.73-8.04 5.188-11.674 3.458-3.63 7.522-5.445 12.192-5.445 1.383 0 2.824.36 4.323 1.08a35.96 35.96 0 0 1 4.323 2.465c1.44.98 2.71 1.815 3.805 2.507 1.096.69 2.163 1.037 3.2 1.037 1.383 0 2.378-.287 2.983-.863.605-.574.908-1.353.908-2.334 0-.748-.245-1.324-.734-1.73a17.084 17.084 0 0 0-1.686-1.21 5.94 5.94 0 0 1-1.686-1.383c-.49-.576-.735-1.412-.735-2.508 0-1.498.503-2.78 1.512-3.848 1.008-1.066 2.435-1.6 4.28-1.6 1.73 0 3.156.75 4.28 2.248s1.687 3.347 1.687 5.536zm-52.887 12.71c-4.16-.864-7.38-.358-9.663 1.515-2.283 1.873-3.424 4.395-3.424 7.564 0 1.844.415 3.5 1.25 4.97s1.97 2.87 3.41 4.194l8.425-18.244z" fill="#FFF"/><g fill="#FFF"><path d="M84.62 413.436a466.184 466.184 0 0 1 4.216 3.514 458.695 458.695 0 0 0 4.216 3.512 53.807 53.807 0 0 1 4.727 4.535 37.328 37.328 0 0 1 3.96 5.174 86.123 86.123 0 0 0 3.767 5.688 276.23 276.23 0 0 1 4.152 5.94c2.3-1.534 4.682-3.108 7.153-4.728 2.47-1.618 5.066-3.32 7.792-5.11-.17.512-.32.916-.447 1.213a2.21 2.21 0 0 1-.448.703 121.41 121.41 0 0 1-3.066 3.45 114.295 114.295 0 0 1-3.194 3.32 36.14 36.14 0 0 1-3.002 2.683 36.603 36.603 0 0 0-3.002 2.682c-.255.342-.447.79-.575 1.342-.127.555-.107 1.043.065 1.47 1.79 5.706 2.172 11.54 1.15 17.5-.427 2.214-1.15 4.28-2.172 6.196s-2.258 3.77-3.705 5.558a4.98 4.98 0 0 1-1.213 1.086c-.47.297-.916.576-1.34.83-2.045 1.36-4.09 2.725-6.133 4.088a158.545 158.545 0 0 1-6.26 3.96 1735.08 1735.08 0 0 1-5.493 3.386c-1.874 1.15-3.79 2.023-5.75 2.62a104.83 104.83 0 0 1-6.514 1.597c-2.216.467-4.43.275-6.643-.574-.938-.254-1.917-.17-2.938.256-1.19.596-2.213.723-3.066.385-.85-.34-1.618-.94-2.3-1.79a23.004 23.004 0 0 0-1.405-1.53 23.3 23.3 0 0 1-1.405-1.534c-.51-.512-.766-.895-.766-1.15-.255-1.107-.51-2.215-.767-3.32a17.762 17.762 0 0 1-.447-3.258 14.278 14.278 0 0 1 .255-3.258c.213-1.108.66-2.173 1.34-3.194a18.892 18.892 0 0 1 3.26-3.832 103.046 103.046 0 0 1 3.895-3.322c3.066-2.555 6.388-4.6 9.965-6.133a171.12 171.12 0 0 0 10.603-4.984 85.06 85.06 0 0 0 3.833-2.172c1.28-.766 2.513-1.53 3.707-2.3.17-.17.34-.4.51-.702.17-.297.212-.53.13-.7a63.666 63.666 0 0 0-1.47-4.792 61.172 61.172 0 0 1-1.47-4.79c-.51-2.3-1.32-4.385-2.426-6.26a556.266 556.266 0 0 0-3.45-5.748 145.683 145.683 0 0 0-3.383-5.686c-1.15-1.83-2.322-3.684-3.513-5.557-.427-.684-.747-1.32-.958-1.918a17.843 17.843 0 0 0-.83-1.916c-.256-.596-.556-1.023-.895-1.28-.34-.253-.937-.423-1.79-.51a27.32 27.32 0 0 1-5.172-.767c-1.747-.425-3.47-.81-5.174-1.15-.255-.083-.49-.17-.703-.255-.21-.084-.446-.17-.7-.256l.765-1.15c1.79.17 3.577.276 5.366.32s3.66.15 5.62.317a37.72 37.72 0 0 0-.573-2.81 53.427 53.427 0 0 1-.575-2.556c-1.02-4.087-.893-7.81.384-11.177 1.277-3.363 3.577-6.45 6.898-9.262a370.2 370.2 0 0 0 6.004-5.11 382.184 382.184 0 0 1 6.004-5.11 3.03 3.03 0 0 1 1.47-.83 32.534 32.534 0 0 0 1.724-.446c.936-.254 1.853-.51 2.747-.766a9.493 9.493 0 0 1 2.62-.384c1.703.086 3.213.447 4.535 1.086 1.32.64 2.405 1.682 3.257 3.13.34.683.467 1.235.383 1.66a92.98 92.98 0 0 0-1.022 6.515 34.404 34.404 0 0 1-1.405 6.39 35.646 35.646 0 0 1-3.77 7.92 40.675 40.675 0 0 1-5.555 6.897 1.222 1.222 0 0 1-.703.512 2.97 2.97 0 0 0-.832.383 38.15 38.15 0 0 0-1.916 1.276c-.597.428-1.108 1.02-1.533 1.79-.427.68-1.066 1.212-1.916 1.595-.852.38-1.746.914-2.682 1.596zm7.027 46.628c-1.363.51-2.64 1.02-3.833 1.533-1.193.51-2.385.936-3.577 1.277a57.82 57.82 0 0 0-6.707 2.172c-2.172.85-4.238 2-6.196 3.45-2.47 1.7-4.94 3.384-7.41 5.044-2.47 1.662-4.427 3.896-5.876 6.707-.255.512-.723.938-1.405 1.277-.85.426-1.277.895-1.277 1.406 0 .51.17.98.51 1.404a66.915 66.915 0 0 0 2.62 3.193c.894 1.023 2.066 1.617 3.513 1.79 1.19.17 2.34.233 3.447.19a88.96 88.96 0 0 1 3.45-.062c5.534 0 9.836-2.3 12.902-6.898a183.74 183.74 0 0 0 3.64-5.814 76.533 76.533 0 0 1 3.77-5.684c1.277-1.79 2.043-3.58 2.3-5.367.254-1.788.296-3.66.126-5.62zm-10.22-64.642c.084.94.106 1.81.064 2.62-.042.81.02 1.554.193 2.235.17 1.193.49 2.363.958 3.514a7.76 7.76 0 0 1 .576 3.514c-.086 1.02.042 1.533.383 1.533.34 0 .765-.084 1.276-.256.68-.255 1.383-.573 2.108-.956a9.343 9.343 0 0 1 2.108-.83c.512-.17.98-.234 1.406-.193.425.046.85-.19 1.277-.7a119.48 119.48 0 0 1 3.32-4.152 41.97 41.97 0 0 0 3.067-4.152c1.447-2.213 2.533-4.535 3.257-6.963.722-2.426 1-4.918.83-7.473-.17-1.958-.938-3.32-2.3-4.09-1.363-.765-2.81-.808-4.343-.126-1.194.596-2.363 1.34-3.513 2.234s-2.194 1.854-3.13 2.875a27.036 27.036 0 0 0-2.938 3.77 168.314 168.314 0 0 1-2.683 4.023 9.55 9.55 0 0 0-1.02 1.79 16.996 16.996 0 0 1-.893 1.786z"/><path d="M135.847 407.56c-.17 2.81-.383 5.6-.64 8.366a271.14 271.14 0 0 0-.638 8.367c.51-.424.976-.766 1.403-1.02.425-.257.85-.554 1.277-.896a42.667 42.667 0 0 1 2.11-1.725c.722-.553 1.424-1.086 2.107-1.596.425-.34 1.064-.512 1.917-.512.936.086 1.872.19 2.81.32.937.127 1.873.447 2.81.957 1.278.686 2.342 1.516 3.194 2.494.85.98 1.66 2.023 2.427 3.13.256.427.49.83.703 1.214.21.383.403.787.574 1.213.426.94.68 1.876.768 2.81.083.258.105.535.063.83-.044.3-.063.576-.063.83v5.623c0 .428.02.895.063 1.406.042.51.063 1.02.063 1.532a20.81 20.81 0 0 0-.127 2.3c0 .766-.09 1.533-.258 2.3 0 .427-.086.788-.256 1.085-.172.3-.3.62-.383.96a26.81 26.81 0 0 0-.447 1.786 6.984 6.984 0 0 1-.574 1.663c-.342.682-.703 1.32-1.086 1.916a44.87 44.87 0 0 1-1.215 1.788c-.084.17-.382.426-.893.766-.172.172-.384.32-.64.447s-.3.364-.127.704c.17.172.468.363.896.574.425.214.723.278.895.19 1.193-.254 2.43-.72 3.706-1.402a18.546 18.546 0 0 0 4.28-3.387 33.256 33.256 0 0 0 3.385-4.28c1.618-2.21 3.15-4.725 4.6-7.535a23.17 23.17 0 0 0 1.726-3.385c.467-1.15 1-2.32 1.597-3.514 0-.084.02-.17.063-.256.042-.084.064-.084.064 0 .424.086.68.064.765-.062.084-.13.298-.107.64.062-1.364 3.408-2.514 6.154-3.45 8.24a205.974 205.974 0 0 1-2.81 6.004c-.938 1.917-1.62 3.09-2.045 3.515a58.01 58.01 0 0 1-2.363 2.235c-.81.726-1.64 1.47-2.49 2.235l-1.15 1.15c-.34.342-.725.682-1.15 1.02a2.808 2.808 0 0 1-1.085.513c-.384.086-.79.213-1.214.383-.427.087-1.065.128-1.916.128-1.194.256-2.28.15-3.258-.318-.98-.467-1.98-.96-3.002-1.47-1.108-.595-1.833-1.32-2.172-2.17a82.823 82.823 0 0 1-1.022-2.685c-.427-1.36-.725-2.98-.894-4.853a25.432 25.432 0 0 1-.256-3.64v-3.643c0-1.277.042-2.53.128-3.768.084-1.235.17-2.493.255-3.77 0-.51-.042-1.022-.125-1.532a10.034 10.034 0 0 1-.128-1.662v-7.408a8.03 8.03 0 0 0-.128-1.533c-.428.255-.81.49-1.15.7-.34.217-.683.408-1.02.578a17.742 17.742 0 0 0-2.94 2.234c-.853.81-1.705 1.64-2.555 2.492-.852.852-1.193 1.832-1.022 2.938.084.94.106 1.832.064 2.684a52.144 52.144 0 0 0-.064 2.682c0 .854.02 1.662.064 2.428.042.768.02 1.576-.064 2.428l-.383 7.664v2.81c-.086.685-.256 1.26-.512 1.726-.255.47-.767.79-1.533.96-.17.085-.32.298-.447.638-.128.342-.236.64-.32.895-.17.51-.363 1.044-.574 1.597a20.63 20.63 0 0 0-.575 1.725c-.088.085-.13.214-.13.384-.17 1.873-1.235 2.896-3.194 3.064l-2.49.257c-.812.086-1.556.428-2.237 1.02-.173.17-.598.257-1.278.257 0-.51.02-1.02.064-1.533a6.26 6.26 0 0 0-.064-1.533 88.694 88.694 0 0 1-.383-4.854 109.482 109.482 0 0 0-.384-4.982l-.255-4.022a31.427 31.427 0 0 1 0-4.026c0-1.447.02-2.938.064-4.47.042-1.534.106-3.022.192-4.472.084-1.277.147-2.533.19-3.77.043-1.232.15-2.447.32-3.64.084-1.448.192-2.876.32-4.28.127-1.404.275-2.83.447-4.28.084-.68.128-1.36.128-2.044 0-.68.043-1.36.128-2.043.17-.938.32-1.916.446-2.94.128-1.02.275-2 .447-2.937v-1.02c.17-.853.298-1.683.384-2.493.083-.81.21-1.596.383-2.363.168-.51.338-1.02.51-1.533l.51-1.534c.256-.594.512-1.168.768-1.725a22.6 22.6 0 0 1 .894-1.724c.34-.68.68-1.297 1.02-1.852.34-.553.724-1.17 1.15-1.852.17-.426.36-.81.576-1.15.21-.34.446-.682.702-1.02.68-.77 1.553-1.216 2.62-1.343 1.063-.13 2.063.106 3 .702.34.17.64.403.895.7.256.3.467.576.64.832.338.51.638 1.02.894 1.53.256.513.554 1.067.895 1.663.34.682.68 1.32 1.022 1.916.34.597.64 1.235.895 1.917.424 1.363.594 2.514.51 3.45-.086 2.214-.767 4.343-2.044 6.386-.685.942-1.62 1.324-2.813 1.153zm-.127-.384c.34-.17.68-.658 1.022-1.47.34-.808.595-1.745.766-2.81.17-1.064.256-2.13.256-3.195 0-1.06-.128-1.934-.383-2.615-.425 1.703-.83 3.365-1.212 4.98-.384 1.62-.533 3.323-.447 5.112z"/><path d="M199.34 444.605c.68-.594 1.36-.87 2.043-.83.68.045 1.277-.232 1.79-.83.594-.766 1.296-1.68 2.106-2.746.807-1.066 1.47-2.025 1.98-2.877.934-1.447 1.742-2.62 2.425-3.514.68-.894 1.36-2.108 2.044-3.64l1.276-2.813 1.278-2.81c.17.427.32.683.447.767.128.086.106.383-.063.895-.938 3.66-2.172 6.833-3.705 9.515-1.532 2.684-3.11 4.898-4.727 6.645-1.618 1.747-3.11 3.067-4.47 3.96-1.364.895-2.26 1.387-2.684 1.47-.51 0-.81.214-.894.64-.256 1.02-.64 1.916-1.15 2.682-.852 1.62-1.277 3.365-1.277 5.238 0 1.62-.81 2.896-2.428 3.832-.853.428-1.683.703-2.49.83-.812.13-1.684.107-2.62-.062-.597 0-1.15-.064-1.66-.193a49.07 49.07 0 0 1-1.66-.445 19.17 19.17 0 0 1-1.917-.576 104.15 104.15 0 0 1-1.917-.703 15.18 15.18 0 0 1-1.47-.83 6.68 6.68 0 0 0-1.47-.7 16.957 16.957 0 0 1-3.257-2.11 875.41 875.41 0 0 0-2.873-2.363c-2.045-1.787-3.367-3.746-3.962-5.875a11.014 11.014 0 0 1-.32-1.918 8.903 8.903 0 0 0-.318-1.787c-.425-1.19-.553-2.363-.383-3.514.172-1.15.383-2.32.64-3.514a15.15 15.15 0 0 1 1.085-2.81 87.2 87.2 0 0 1 1.47-2.812c.935-1.787 2.084-3.62 3.447-5.492a21.383 21.383 0 0 1 1.98-1.98 7.67 7.67 0 0 1 2.49-1.47c.34-.17.617-.36.83-.575a4.74 4.74 0 0 1 .704-.574c.68-.514 1.384-.79 2.108-.83.724-.045 1.47.02 2.236.19.767.085 1.36.32 1.79.702.424.383.85.873 1.276 1.47.255.427.53.874.83 1.34.298.47.575.958.83 1.47.256.342.64.428 1.15.256.34-.17.702-.32 1.086-.448.383-.13.744-.148 1.086-.064.51.172 1.02.342 1.532.512.512.172.98.51 1.405 1.02.34.343.66.64.96.896.296.256.573.555.83.895 1.446 1.873 2.085 4.13 1.915 6.77 0 .342.02.64.064.895.04.256.104.555.19.895.084.6.147 1.194.19 1.79.043.596.106 1.193.19 1.787v4.338zm-14.31-10.218h-.383a18.51 18.51 0 0 1-1.086 1.47 4.412 4.412 0 0 0-.83 1.597 21.21 21.21 0 0 0-1.02 3.064c-.255 1.023-.34 2.13-.255 3.322v1.15c0 .34.084.725.256 1.148a6.8 6.8 0 0 1 .32 1.598c.04.555.063 1.13.063 1.725 0 .43.042.875.128 1.344.085.47.256.83.51 1.086.597.765 1.32 1.276 2.174 1.532.85.254 1.744.47 2.683.64.51.083.98-.022 1.405-.32a24.21 24.21 0 0 0 1.278-.96 20.128 20.128 0 0 0 2.938-2.746c.85-.98 1.405-2.19 1.66-3.64-5.194-2.47-8.473-6.472-9.835-12.01zm10.093 8.558h.512a21.34 21.34 0 0 0 .127-2.3v-2.17c.084-.94.02-1.81-.19-2.62a15.734 15.734 0 0 1-.448-2.62c-.172-1.276-.83-2.403-1.98-3.384-1.15-.977-2.193-1.596-3.13-1.852-.255-.17-.51-.127-.766.13-.172.425-.342.81-.512 1.147-.17.342-.213.725-.127 1.15.423 1.62 1.19 3.11 2.297 4.47.256.343.468.685.64 1.024.17.253.318.53.446.83s.275.573.447.83c.34.595.66 1.17.96 1.724.297.555.574 1.13.83 1.725.17.34.32.66.446.956.128.302.275.62.447.96z"/><path d="M272.156 423.783c.255.51.383.81.383.895a23.882 23.882 0 0 1-.64 2.49 7.414 7.414 0 0 1-1.15 2.236 17.272 17.272 0 0 1-3.514 3.32c-1.32.94-2.662 1.875-4.023 2.81-1.363 1.024-2.938 1.11-4.727.257-.428.856-.703 1.686-.83 2.494-.13.81-.278 1.682-.448 2.62a65.09 65.09 0 0 0-.384 4.022c-.086 1.32-.3 2.62-.64 3.896a8.427 8.427 0 0 1-.894 2.43 641.5 641.5 0 0 0-1.277 2.298 23.92 23.92 0 0 0-1.15 2.043c-.34.685-.682 1.364-1.02 2.046-.428.937-1.215 1.64-2.364 2.106-1.15.47-2.235.533-3.258.19a10.865 10.865 0 0 1-3.193-1.468 11.016 11.016 0 0 1-2.43-2.236 57.247 57.247 0 0 1-2.617-3.32 15.266 15.266 0 0 1-1.98-3.706 61.202 61.202 0 0 0-1.022-2.62c-.34-.808-.682-1.68-1.02-2.618-.086-.256-.13-.51-.13-.766s-.042-.553-.126-.895h-.255c-.43.938-.79 1.832-1.087 2.684-.3.85-.66 1.746-1.086 2.68a62.405 62.405 0 0 1-.512 1.47c-.17.47-.34.96-.51 1.47 0 .17.02.34.063.51.04.174.062.344.062.514.084.938.147 1.852.19 2.746.043.894.107 1.81.192 2.745 0 .342-.213.725-.64 1.15-.426.938-.937 1.62-1.53 2.045-.6.426-1.237.64-1.918.64h-2.044c-.255 0-.51-.044-.767-.13a2.134 2.134 0 0 0-.64-.127c-1.448-.34-2.426-1.32-2.937-2.94a8.415 8.415 0 0 0-.703-1.34c-.3-.468-.575-.913-.83-1.34a32.885 32.885 0 0 1-1.214-2.108 34.505 34.505 0 0 0-1.214-2.11 3.496 3.496 0 0 0-.64-.894l-.766-.764c-.426-.596-.7-1.19-.83-1.79a63 63 0 0 0-.446-1.915 54.32 54.32 0 0 1-.702-2.872 57.515 57.515 0 0 0-.703-2.875 85.214 85.214 0 0 1-.96-3.066 25.51 25.51 0 0 1-.7-3.066c-.174-.85-.32-1.7-.45-2.554-.127-.85-.276-1.66-.446-2.428a19.667 19.667 0 0 0-.703-2.746 53.377 53.377 0 0 1-.83-2.745 19.29 19.29 0 0 0-.32-1.342 5.545 5.545 0 0 1-.19-1.47c0-.595.364-1.15 1.087-1.66.725-.51 1.425-.808 2.107-.894 1.277-.17 2.49-.105 3.64.19 1.15.3 2.32.66 3.515 1.087 1.276.342 2.3 1.066 3.064 2.172.68.765 1.15 1.702 1.405 2.81.34 1.02.595 2.023.766 3.002.17.98.384 1.98.64 3.003a73.97 73.97 0 0 1 1.15 4.088 71.32 71.32 0 0 0 1.148 4.09c.34 1.192.68 2.32 1.022 3.384.34 1.066.723 2.152 1.15 3.258 0 .086.083.215.255.383.17 0 .256-.127.256-.383.51-1.36 1-2.725 1.47-4.088a98.74 98.74 0 0 0 1.34-4.215c.34-.94.427-1.833.257-2.685a524.49 524.49 0 0 1-.51-2.555c-.173-.682-.045-1.19.382-1.533.256-.17.553-.597.895-1.278.426-.936 1.15-1.574 2.173-1.916 1.02-.34 2-.426 2.938-.256 1.108.172 2.024.66 2.75 1.47a53.01 53.01 0 0 0 2.106 2.235c1.278 1.45 2.172 3.023 2.683 4.727a138.466 138.466 0 0 1 2.427 5.11 5.04 5.04 0 0 1 .256 1.597 6.2 6.2 0 0 0 .255 1.724 14.437 14.437 0 0 1 .766 2.554c.084.34.042.85-.128 1.532-.086.85-.3 1.83-.64 2.937-.17.684-.318 1.363-.446 2.045a35.164 35.164 0 0 1-.447 2.043c-.172.342-.342.598-.512.768a2.29 2.29 0 0 0-.51 1.47c0 .554.213.958.64 1.212.084.086.233.13.447.13.212 0 .36-.085.447-.257a7.6 7.6 0 0 0 .83-.96c.212-.296.447-.614.703-.956.51-.936 1-1.854 1.47-2.746.466-.895.743-1.895.83-3.004 0-.936.147-1.807.446-2.617.298-.81.53-1.682.703-2.62.17-1.446.446-2.81.83-4.087a320.89 320.89 0 0 1 1.214-3.96c.083-.34.104-.68.062-1.022a9.062 9.062 0 0 1-.063-1.15c0-.084-.13-.256-.386-.512-1.193-.936-2.044-1.98-2.555-3.13s-.854-2.446-1.023-3.895v-1.406c0-.512.084-.98.256-1.406.256-1.022.937-1.278 2.044-.767.17.087.467.128.895.128.767-.426 1.47-.488 2.107-.19.64.298 1.297.573 1.98.83.17.085.296.255.382.51.084.257.17.51.256.767a64.918 64.918 0 0 1 .254 5.75c0 .426-.022.83-.064 1.213-.044.383-.063.79-.063 1.213 0 1.024.51 1.407 1.533 1.15a9.527 9.527 0 0 0 2.3-1.02 47.1 47.1 0 0 0 4.79-3.834c1.49-1.36 2.83-2.938 4.024-4.727.083-.17.147-.36.19-.574.045-.215.15-.492.322-.834zm-17.12 8.05c.085-.427.107-.94.065-1.534a7.834 7.834 0 0 0-.317-1.727 8.458 8.458 0 0 0-.64-1.533c-.255-.466-.51-.743-.766-.83.256.94.467 1.897.64 2.874.17.98.51 1.896 1.02 2.748z"/></g><g fill="#FFF"><path d="M87.392 29.817c1.294 1.448 1.98 2.933 2.056 4.456a32.54 32.54 0 0 1-.114 4.684 2.575 2.575 0 0 0 0 1.085c.075.343.114.705.114 1.085v1.2c0 .42-.077.782-.23 1.085-.913 1.904-1.295 3.79-1.14 5.655a25.07 25.07 0 0 0 1.14 5.655c.305 1.068.496 2.17.572 3.313.075 1.143.19 2.285.343 3.427.152.61.23 1.105.23 1.485.074 1.448.13 2.875.17 4.284a192 192 0 0 0 .17 4.4c.076.84.19 1.696.344 2.57.152.877.23 1.77.23 2.686.074 1.6.094 3.2.056 4.798-.04 1.6-.096 3.238-.17 4.913v2.742c0 .913-.04 1.827-.115 2.74a52.32 52.32 0 0 0-.17 2.57 19.26 19.26 0 0 1-.287 2.57c-.227 1.753-1.18 3.16-2.854 4.23a17.652 17.652 0 0 1-4 1.94c-1.37.458-2.855.687-4.455.687-.304 0-.61.095-.913.286-.305.19-.648.36-1.028.514-.687.23-1.39.457-2.115.686-.725.23-1.505.532-2.342.914.15-1.296.303-2.533.457-3.713.15-1.182.265-2.305.342-3.37a9.35 9.35 0 0 0 .114-2.514 27.405 27.405 0 0 1-.114-2.514c0-.61.038-1.237.114-1.885a16.35 16.35 0 0 0 .114-1.883c.075-1.75.095-3.484.057-5.198-.04-1.714-.057-3.446-.057-5.2 0-.99-.02-1.98-.057-2.97-.04-.99.018-2.016.17-3.083.153-2.13.19-4.228.115-6.284a60.882 60.882 0 0 0-.57-6.284 10.968 10.968 0 0 1-.115-2.743c.075-.914.038-1.828-.114-2.742a40.82 40.82 0 0 0-.687-4.284 39.683 39.683 0 0 1-.686-4.283 28.958 28.958 0 0 1-.114-4.456c.075-1.445.15-2.93.23-4.455.074-1.218.13-2.4.17-3.542.037-1.143.094-2.322.17-3.542a.24.24 0 0 0-.056-.17c-.04-.04-.057-.095-.057-.17.38-1.144.267-1.75-.342-1.83-.61-.074-1.22-.19-1.828-.342a1.595 1.595 0 0 0-.914-.17 7.02 7.02 0 0 1-.914.056l-4.97.23a112.9 112.9 0 0 0-4.97.342 10.28 10.28 0 0 0-1.542.343 5.16 5.16 0 0 1-1.542.23c-.23 0-.475-.116-.743-.345a7.906 7.906 0 0 0-.743-.57c.154-.23.343-.458.57-.686.23-.23.458-.38.687-.458a268.4 268.4 0 0 1 5.253-.856 83.057 83.057 0 0 1 5.255-.628c5.94-.61 11.727-1.066 17.365-1.37a35.558 35.558 0 0 1 4 0c1.37.076 2.702.076 3.998 0 .61 0 1.258-.04 1.943-.115a17.91 17.91 0 0 1 1.942-.113c1.294 0 2.55-.018 3.77-.057a25.78 25.78 0 0 1 3.77.17c.458 0 .915.098 1.372.287.456.19.874.44 1.255.743.304.153.57.457.8.914s.266.8.114 1.028c-.154.382-.42.742-.8 1.085-.383.343-.763.554-1.143.628a120.5 120.5 0 0 1-3.942.4 27.228 27.228 0 0 1-3.94.057c-1.143 0-2.285-.057-3.427-.17a106.98 106.98 0 0 0-3.428-.287h-.857a5.05 5.05 0 0 0-.97.112zm27.76 19.537a241.24 241.24 0 0 1-.57 7.483c-.23 2.476-.42 4.97-.57 7.483.457-.38.875-.686 1.257-.914.38-.23.76-.495 1.142-.8a37.625 37.625 0 0 1 1.886-1.542c.646-.494 1.274-.97 1.885-1.428.38-.303.953-.457 1.715-.457.837.075 1.674.17 2.513.283.838.114 1.676.4 2.515.857 1.143.612 2.094 1.355 2.856 2.23a32.54 32.54 0 0 1 2.17 2.798c.23.382.44.743.63 1.085.19.343.36.705.514 1.085.38.84.61 1.676.687 2.513.076.23.095.48.058.745-.04.268-.057.514-.057.743v5.027c0 .382.02.8.058 1.257.037.458.057.915.057 1.372-.076.686-.113 1.37-.113 2.056s-.077 1.37-.23 2.057c0 .382-.076.705-.228.97a3.29 3.29 0 0 0-.344.858 23.64 23.64 0 0 0-.4 1.6 6.216 6.216 0 0 1-.514 1.484c-.305.61-.628 1.18-.97 1.713a39.22 39.22 0 0 1-1.086 1.6c-.077.154-.343.382-.8.686-.153.153-.342.285-.57.4s-.27.324-.115.627c.152.153.418.325.8.514.38.19.646.25.8.17 1.066-.227 2.17-.644 3.313-1.255a16.577 16.577 0 0 0 3.827-3.027 29.814 29.814 0 0 0 3.027-3.828c1.446-1.98 2.817-4.227 4.113-6.74.608-.99 1.123-2 1.542-3.028a45.047 45.047 0 0 1 1.428-3.143.51.51 0 0 1 .057-.23c.038-.075.057-.075.057 0 .38.077.61.057.685-.057.074-.113.266-.094.57.058-1.22 3.048-2.247 5.504-3.084 7.37a184.503 184.503 0 0 1-2.512 5.37c-.84 1.713-1.448 2.76-1.828 3.14a52.433 52.433 0 0 1-2.113 2c-.725.648-1.468 1.314-2.228 2-.383.38-.726.725-1.03 1.028-.304.305-.647.61-1.027.914-.305.228-.628.38-.97.456-.344.077-.707.19-1.086.343-.382.077-.953.114-1.714.114-1.067.228-2.04.134-2.913-.286a166.5 166.5 0 0 1-2.685-1.314c-.99-.532-1.64-1.18-1.942-1.942-.306-.76-.61-1.56-.914-2.398-.383-1.218-.65-2.666-.8-4.34a22.74 22.74 0 0 1-.23-3.257V78.6c0-1.144.04-2.267.114-3.372l.228-3.37c0-.457-.04-.914-.114-1.37A8.948 8.948 0 0 1 121.78 69v-6.626c0-.532-.04-.99-.114-1.37a61.46 61.46 0 0 0-1.028.627c-.305.19-.61.363-.914.515a15.83 15.83 0 0 0-2.627 2c-.762.725-1.524 1.467-2.285 2.228-.762.762-1.067 1.64-.914 2.628.075.84.095 1.64.057 2.4a45.817 45.817 0 0 0 0 4.57c.038.686.018 1.41-.057 2.17l-.343 6.856v2.513c-.077.61-.228 1.124-.457 1.54-.23.42-.686.706-1.37.858-.155.076-.287.267-.4.57a23.7 23.7 0 0 0-.287.8 35.96 35.96 0 0 1-.512 1.428 18.21 18.21 0 0 0-.514 1.542c-.077.077-.114.19-.114.343-.154 1.677-1.106 2.59-2.857 2.743-.762.077-1.505.154-2.228.23-.725.076-1.39.38-2 .913-.153.152-.533.23-1.142.23 0-.458.018-.915.057-1.372a5.58 5.58 0 0 0-.057-1.37 80.192 80.192 0 0 1-.343-4.342 96.883 96.883 0 0 0-.343-4.456 3540.01 3540.01 0 0 0-.23-3.6 28.063 28.063 0 0 1 0-3.598 140.662 140.662 0 0 1 .23-7.998c.074-1.143.13-2.265.17-3.37a30.02 30.02 0 0 1 .286-3.256c.075-1.294.17-2.57.286-3.827s.244-2.532.4-3.828c.073-.61.112-1.218.112-1.83 0-.607.037-1.216.114-1.827.15-.837.286-1.714.4-2.628s.246-1.79.4-2.627v-.913c.15-.76.266-1.503.342-2.228.074-.724.188-1.43.342-2.114l.457-1.37c.15-.458.303-.915.456-1.372.23-.53.457-1.045.686-1.54.23-.495.494-1.01.8-1.543.302-.61.61-1.16.913-1.657.303-.495.646-1.046 1.028-1.657.15-.38.324-.723.515-1.028.19-.304.4-.61.628-.914.61-.685 1.39-1.084 2.342-1.2.95-.113 1.846.097 2.685.63.304.152.57.36.8.627.23.268.418.514.57.743.305.457.572.914.8 1.37s.496.955.8 1.486c.304.61.61 1.18.915 1.713.303.533.57 1.104.8 1.712.38 1.22.53 2.248.456 3.085-.076 1.982-.685 3.885-1.827 5.713-.61.842-1.447 1.184-2.513 1.03zm-.113-.343c.302-.15.607-.587.912-1.312.304-.723.532-1.56.686-2.514.15-.95.228-1.903.228-2.856 0-.952-.114-1.73-.343-2.342-.382 1.524-.743 3.01-1.085 4.456a16.292 16.292 0 0 0-.4 4.57z"/><path d="M141.43 84.885l.685-3.77c0-.304.02-.59.057-.858.04-.266.097-.59.17-.97.078-.153.155-.305.23-.458l.23-.46c.153-.836.342-1.6.568-2.284.227-.686.49-1.37.794-2.056a30.6 30.6 0 0 1 2.042-4.227c.225-.38.47-.78.735-1.2.266-.417.51-.817.74-1.2l.454-.685c.15-.23.303-.417.454-.57a5.72 5.72 0 0 0 .624-.744c.19-.266.397-.475.624-.628.454-.532.91-1.046 1.363-1.542a9.564 9.564 0 0 1 1.473-1.314 4.11 4.11 0 0 1 1.19-.857c.417-.19.815-.4 1.194-.628.3-.15.527-.303.68-.457.38-.457.812-.78 1.306-.97.49-.19 1-.362 1.53-.515a6.406 6.406 0 0 1 1.138-.343c.38-.075.84-.038 1.37.114.383.077.744.134 1.088.17.342.04.703.172 1.084.4.837.61 1.407 1.297 1.714 2.057.074.384.266.878.57 1.487.152.382.324.705.514.97.19.27.36.592.516.972a.5.5 0 0 0 .057.23.526.526 0 0 1 .058.226c-.075.382-.132.782-.17 1.2-.04.42-.134.82-.286 1.2 0 .534-.112 1.028-.34 1.485 0 .078-.04.154-.116.23a1.38 1.38 0 0 0-.23.343 7.4 7.4 0 0 0-.4.685c-.112.23-.247.457-.397.686-.23.382-.44.762-.63 1.143-.19.382-.4.762-.627 1.143l-.343.342c-.61.305-.99.57-1.143.8a17.812 17.812 0 0 1-3.764 4.113 22.857 22.857 0 0 1-1.872 1.485 22.58 22.58 0 0 0-1.87 1.485c-.53.382-1.06.725-1.59 1.028-.53.305-1.057.648-1.586 1.028-.528.23-.87.764-1.02 1.6-.23.687-.436 1.41-.624 2.17-.19.764-.36 1.526-.51 2.287-.153.61-.267 1.2-.342 1.77s-.265 1.126-.565 1.658c0 .077.017.153.054.23a.527.527 0 0 1 .057.228c.53.61 1.078 1.143 1.646 1.6.568.457 1.305.725 2.214.8a7.144 7.144 0 0 0 1.813 0 14.73 14.73 0 0 0 1.817-.343 4.98 4.98 0 0 0 1.756-.572 14.476 14.476 0 0 0 1.646-1.028c.61-.457 1.236-.875 1.885-1.257a12.45 12.45 0 0 0 1.886-1.37 28.373 28.373 0 0 0 2.57-2.17 13.08 13.08 0 0 0 2.115-2.63c.458-.685.95-1.37 1.485-2.055a35.74 35.74 0 0 0 1.485-2.057 187.29 187.29 0 0 0 2.23-3.654c.722-1.217 1.464-2.474 2.228-3.77.23-.38.457-.76.686-1.143l.685-1.143c.23-.23.456-.267.685-.115.304.153.495.42.57.8.075.382.038.762-.112 1.143-.154.61-.44 1.067-.857 1.37a6.67 6.67 0 0 0-1.198 1.144c-.383.382-.572.876-.572 1.485a22.93 22.93 0 0 1-.457 1.257l-.687 1.713c-.152.382-.342.61-.57.686-.383.382-.725.743-1.03 1.085s-.532.82-.685 1.428c-.076.23-.19.44-.342.628-.154.19-.305.4-.457.628-.384.686-.8 1.354-1.26 2a9.95 9.95 0 0 1-1.597 1.77 5.1 5.1 0 0 0-.744.915c-.19.305-.36.648-.515 1.028-.382.686-.8 1.314-1.257 1.885s-.992 1.048-1.6 1.428a34.7 34.7 0 0 1-1.086.628c-.342.19-.705.4-1.086.628-.304.154-.57.325-.798.514-.23.19-.496.362-.8.514a7.842 7.842 0 0 1-1.026.343c-.303.077-.643.19-1.02.343-.606.154-1.022.23-1.25.23a5.16 5.16 0 0 1-1.02.113c-.304 0-.643.04-1.02.116-1.062.152-2.063.114-3.007-.114A22.85 22.85 0 0 1 148.82 97a8.226 8.226 0 0 1-2.27-1.543 20.45 20.45 0 0 1-1.927-2.114 11.94 11.94 0 0 1-1.475-2.17c-.457-.99-.857-2-1.2-3.027s-.475-2.074-.4-3.142c-.074 0-.114-.04-.114-.115zm20.953-19.88a1.76 1.76 0 0 1-.457.343 1.82 1.82 0 0 0-.457.343c-.383.23-.744.46-1.088.688-.342.23-.705.457-1.084.686a1.026 1.026 0 0 1-.458.286.513.513 0 0 0-.344.285c-.38.61-.742 1.182-1.084 1.714a39.252 39.252 0 0 1-1.086 1.597c-.153.23-.25.44-.286.628-.04.19-.134.362-.285.514a3.467 3.467 0 0 1-.57.97c-.23.27-.42.59-.572.97a11.03 11.03 0 0 0-.4 1.2c-.113.42-.248.82-.4 1.2a40.1 40.1 0 0 0-1.484 4l.457-.23c.61-.38 1.2-.76 1.77-1.14.57-.38 1.123-.8 1.657-1.26.76-.61 1.503-1.256 2.228-1.94a38.12 38.12 0 0 0 2.113-2.17 8.268 8.268 0 0 0 1.885-2.857c.42-1.065.82-2.17 1.202-3.313.15-.303.23-.588.23-.856 0-.266.036-.59.112-.97-.763.225-1.298-.003-1.6-.69z"/></g></svg>