<?xml version="1.0" standalone="no"?>
<!DOCTYPE svg PUBLIC "-//W3C//DTD SVG 20010904//EN"
 "http://www.w3.org/TR/2001/REC-SVG-20010904/DTD/svg10.dtd">
<svg version="1.0" xmlns="http://www.w3.org/2000/svg"
 width="260.000000pt" height="260.000000pt" viewBox="0 0 260.000000 260.000000"
 preserveAspectRatio="xMidYMid meet">
<metadata>
Created by potrace 1.11, written by Peter Selinger 2001-2013
</metadata>
<g transform="translate(0.000000,260.000000) scale(0.100000,-0.100000)"
fill="#000000" stroke="none">
<path d="M1115 2530 c-14 -6 -15 -9 -5 -10 13 -1 13 -2 0 -13 -43 -35 -48
-127 -10 -154 21 -15 16 -47 -6 -39 -8 3 -11 0 -7 -10 3 -7 2 -14 -1 -14 -8 0
-67 127 -85 183 -7 20 -16 37 -20 37 -4 0 3 -32 16 -71 28 -88 28 -89 -1 -89
-30 0 -46 40 -46 114 l-1 51 -14 -40 c-8 -22 -15 -56 -16 -75 l-1 -35 -14 44
c-7 24 -17 47 -20 50 -6 6 -5 -6 11 -71 6 -21 3 -28 -8 -28 -8 0 -20 6 -27 14
-6 8 -17 13 -25 10 -7 -3 -16 3 -20 15 -3 12 -11 19 -16 16 -5 -4 -9 -1 -9 4
0 6 -8 19 -17 29 -17 16 -19 16 -43 -6 l-25 -24 -18 24 c-18 21 -20 21 -32 5
-7 -9 -20 -17 -29 -17 -14 0 -15 -4 -5 -21 13 -25 -5 -55 -19 -32 -4 7 -8 -5
-9 -27 -1 -22 2 -42 8 -45 5 -4 9 -12 9 -18 0 -7 -10 3 -22 22 -20 32 -22 32
-29 13 -5 -12 -17 -27 -28 -34 -15 -9 -19 -19 -14 -38 3 -14 11 -28 17 -32 8
-6 7 -8 -1 -8 -6 0 -15 5 -18 11 -4 6 -13 8 -20 5 -7 -2 -21 2 -32 9 -35 27
-40 17 -17 -40 7 -20 7 -20 -14 -1 -12 11 -22 15 -22 9 0 -5 9 -18 20 -28 15
-14 17 -21 9 -32 -10 -11 -20 -9 -58 14 l-46 27 37 -43 c32 -38 41 -68 29 -99
0 -1 -11 2 -22 9 -21 11 -21 10 -5 -12 22 -31 20 -38 -6 -31 -22 5 -22 4 -7
-14 9 -10 20 -26 24 -34 6 -12 5 -13 -6 -2 -7 6 -19 12 -27 12 -7 0 -1 -11 15
-25 l28 -26 -25 2 c-39 2 -52 0 -46 -9 3 -5 -8 -6 -25 -4 -24 4 -29 1 -29 -17
0 -13 -7 -21 -17 -21 -10 -1 3 -12 30 -26 49 -25 65 -51 25 -38 -13 4 -30 9
-38 11 -8 3 -4 -5 10 -17 l25 -21 -50 6 -50 7 25 -25 c14 -13 32 -26 40 -29 9
-3 -1 -9 -22 -13 -21 -4 -35 -11 -32 -16 5 -8 -20 -13 -56 -11 -11 0 -10 -3 4
-14 20 -14 20 -14 0 -14 -18 -1 -18 -1 -1 -11 15 -9 16 -13 5 -26 -11 -14 -10
-15 7 -10 11 4 27 2 35 -3 11 -7 9 -11 -13 -19 -16 -6 -37 -11 -48 -11 -10 0
-19 -4 -19 -10 0 -5 9 -10 19 -10 11 0 23 -5 26 -11 4 -6 1 -9 -6 -8 -22 3
-49 -12 -49 -27 0 -8 -7 -17 -15 -20 -19 -8 -1 -34 24 -35 10 0 8 -4 -7 -10
-26 -10 -44 -4 -41 14 2 7 -1 38 -5 70 -10 66 -30 76 -59 28 -16 -27 -17 -90
-17 -800 l1 -771 298 0 298 0 21 74 c12 41 22 92 22 113 1 21 7 56 15 78 9 24
11 41 5 43 -6 2 -10 10 -10 19 0 21 -52 93 -68 93 -8 0 -25 9 -39 20 -14 11
-20 20 -12 20 11 0 11 2 0 13 -11 9 -14 9 -18 0 -6 -17 -58 9 -67 33 -5 14 -4
15 9 4 36 -30 11 13 -40 68 -75 82 -90 128 -44 136 8 1 26 10 42 20 36 24 127
30 156 10 20 -15 31 -41 11 -29 -5 3 -10 2 -10 -3 0 -8 22 -22 35 -22 2 0 3
21 4 48 0 26 9 81 20 122 11 41 24 110 29 152 7 55 19 93 41 132 17 31 45 81
62 111 31 56 80 100 102 92 7 -3 18 -32 25 -65 15 -72 38 -99 27 -31 -4 24
-13 60 -20 80 -13 36 -13 36 22 48 45 17 184 30 203 20 20 -10 120 -116 148
-155 l21 -31 -24 5 c-51 9 -195 -41 -195 -69 0 -12 37 -12 44 0 12 20 99 51
140 51 42 0 47 -3 74 -42 28 -40 55 -100 104 -228 l21 -54 -40 -36 c-31 -27
-38 -38 -28 -47 9 -9 17 -7 30 5 16 16 16 15 1 -15 -22 -43 -50 -58 -70 -37
-20 19 -20 22 -1 57 10 21 11 27 2 24 -18 -6 -31 -50 -23 -80 13 -54 97 -40
112 18 3 14 10 23 14 20 14 -9 -11 -89 -35 -111 -22 -20 -22 -21 -3 -33 15 -9
16 -15 8 -31 -13 -24 -30 -26 -30 -5 0 25 -30 17 -42 -12 -7 -16 -17 -35 -24
-43 -6 -8 -15 -26 -19 -40 -5 -19 -1 -16 21 14 l27 39 13 -25 c7 -14 20 -28
29 -32 8 -3 15 -11 14 -18 0 -10 -2 -10 -6 0 -2 6 -14 12 -26 12 -20 0 -21 0
-1 -16 10 -8 14 -13 8 -10 -7 3 -14 -1 -17 -8 -3 -8 -1 -17 6 -19 9 -3 9 -8 0
-18 -7 -7 -13 -21 -13 -32 0 -12 -4 -16 -12 -11 -9 6 -9 3 1 -9 16 -20 7 -51
-14 -44 -9 4 -12 1 -8 -9 3 -8 -1 -14 -11 -14 -10 0 -16 -9 -17 -22 -1 -15 -5
-10 -11 15 -10 37 -9 41 26 76 39 40 42 53 21 91 -14 24 -14 24 -15 3 0 -12 5
-25 10 -28 6 -3 10 -11 10 -16 0 -6 -5 -7 -12 -3 -7 4 -8 3 -4 -4 5 -8 0 -12
-13 -12 -14 0 -19 -5 -15 -14 3 -8 -4 -23 -15 -32 -15 -13 -19 -25 -15 -43 24
-108 39 -133 87 -145 23 -5 27 -4 25 10 -2 9 2 19 7 20 10 4 12 -14 18 -118 2
-55 11 -68 26 -39 7 12 7 22 2 26 -12 7 -10 85 1 85 4 0 8 -19 9 -42 0 -24 2
-53 3 -66 2 -12 -1 -22 -6 -22 -5 0 -6 -5 -2 -11 3 -6 19 -9 35 -5 15 3 31 1
34 -4 3 -6 12 -10 18 -9 9 0 9 2 1 5 -7 3 -10 14 -7 25 4 15 8 17 20 8 8 -7
12 -18 9 -26 -3 -7 1 -13 9 -13 11 0 13 12 9 63 -3 39 -2 57 4 49 5 -7 7 -24
4 -38 -2 -14 0 -24 7 -24 6 0 11 -11 11 -25 0 -18 5 -25 20 -25 11 0 20 5 20
10 0 6 -5 10 -11 10 -8 0 -8 5 1 15 8 10 9 15 2 15 -6 0 -9 6 -6 14 3 8 0 17
-5 21 -6 3 -9 11 -6 16 10 15 25 10 25 -8 0 -30 20 -93 30 -93 4 0 13 12 18
27 9 27 10 27 18 7 6 -15 14 -19 26 -15 16 5 16 9 4 33 -17 32 -11 75 8 55 6
-7 12 -25 13 -41 0 -16 7 -32 13 -36 7 -4 9 -13 6 -19 -4 -6 0 -11 8 -11 9 0
16 6 16 14 0 7 6 26 14 41 13 25 15 25 25 8 10 -16 11 -15 5 7 -5 20 -4 23 7
13 11 -11 15 -28 18 -70 1 -7 10 -13 21 -13 11 0 18 5 15 12 -4 13 -7 32 -20
118 -11 75 11 23 25 -57 8 -52 16 -73 27 -73 9 0 12 6 8 19 -6 19 20 38 30 21
3 -4 0 -10 -7 -12 -15 -5 -1 -28 18 -28 11 0 14 13 12 58 -2 31 -6 59 -9 62
-4 3 -10 21 -13 41 -3 20 -8 43 -12 52 -4 11 -1 17 8 17 7 0 15 -10 16 -22 2
-13 4 -32 5 -43 2 -11 8 -39 15 -63 23 -78 49 -29 27 50 -4 16 -10 26 -14 24
-3 -2 -6 6 -6 18 0 19 3 21 17 12 10 -6 17 -15 16 -21 -3 -19 14 -105 22 -110
4 -2 6 -20 4 -40 l-2 -35 69 2 c56 1 69 4 68 17 0 10 -2 12 -6 4 -9 -25 -23
-13 -22 20 1 17 3 24 6 15 6 -24 15 -23 32 3 10 18 15 19 22 8 5 -8 9 -18 9
-24 0 -5 -4 -4 -9 4 -6 10 -10 10 -16 1 -4 -6 1 -19 12 -29 15 -15 37 -18 111
-18 51 -1 92 2 92 6 0 4 -6 13 -12 20 -11 11 -10 13 5 8 9 -4 17 -3 17 1 0 4
10 8 21 9 l21 2 -20 -22 -21 -23 80 -2 80 -3 -2 122 c-1 71 -6 131 -13 141 -8
13 -8 21 0 26 6 4 12 51 13 118 l2 112 -35 22 c-20 12 -36 26 -36 30 0 15 37
31 54 24 13 -5 16 2 16 35 0 23 -5 41 -11 41 -5 0 -7 5 -4 10 3 6 0 10 -7 10
-9 0 -9 3 2 10 13 9 13 11 0 19 -12 8 -12 11 4 17 18 7 18 8 0 23 -11 9 -28
26 -38 39 -17 20 -18 22 -2 22 9 0 14 -4 11 -10 -3 -5 -1 -10 4 -10 6 0 11 5
11 11 0 6 7 9 15 5 27 -10 16 12 -17 34 -24 15 -27 20 -12 17 13 -3 25 3 32
14 15 24 15 59 1 59 -8 0 -8 5 1 15 7 8 9 16 4 17 -5 0 -13 2 -19 3 -5 2 -16
3 -23 4 -7 0 -11 5 -8 10 3 5 16 7 29 5 20 -4 20 -3 -3 8 -30 16 -37 48 -9 41
23 -6 25 12 3 21 -13 5 -14 9 -4 21 10 11 7 19 -16 40 l-27 25 24 0 24 1 -24
19 c-19 17 -21 21 -7 26 10 4 14 14 12 28 -3 16 1 23 12 23 10 0 20 -4 23 -10
4 -6 9 -6 12 0 4 6 -5 16 -18 23 -14 7 -26 22 -26 32 -1 10 -3 23 -4 28 -1 6
-3 15 -4 20 0 6 -9 10 -19 10 -10 0 -22 3 -26 7 -4 4 -26 6 -49 5 -28 -2 -38
0 -28 6 7 6 11 14 7 20 -3 5 5 18 19 28 25 19 25 37 0 28 -8 -3 -19 -3 -25 1
-15 9 18 34 47 35 12 0 25 5 28 10 8 13 4 13 -50 -5 -32 -11 -50 -13 -63 -6
-14 9 -13 10 11 11 15 0 27 4 27 9 0 5 11 12 25 15 14 4 24 10 21 15 -3 4 24
18 59 32 36 13 65 27 65 32 0 10 -12 9 -60 -8 -23 -8 -56 -15 -72 -15 -26 0
-28 2 -18 20 10 20 49 35 83 32 9 0 17 3 17 7 0 5 12 6 28 4 23 -4 24 -2 10 7
-12 7 -30 8 -55 1 -90 -22 -90 -22 -96 0 -3 11 -15 23 -26 26 -27 7 -27 17 2
32 l22 11 -24 -6 c-19 -5 -23 -3 -18 9 4 10 -1 18 -11 21 -10 3 -7 4 7 3 14
-1 29 6 38 19 13 20 12 21 -9 19 -13 -2 -35 -8 -50 -14 -15 -6 -35 -8 -43 -4
-14 5 -14 8 2 25 17 19 17 19 -35 0 -50 -19 -52 -19 -52 -2 0 11 15 33 33 50
20 20 28 34 20 37 -9 3 -5 16 12 44 14 21 25 41 25 43 0 10 -76 -7 -91 -20 -8
-8 -19 -14 -23 -14 -5 0 -26 -14 -47 -31 -30 -23 -46 -29 -64 -25 -14 4 -25
10 -25 14 0 5 27 30 60 58 33 27 60 53 60 57 0 12 -18 0 -82 -56 -31 -27 -62
-47 -68 -45 -5 1 11 28 37 58 38 43 41 50 18 33 -16 -12 -43 -35 -58 -52 -40
-44 -54 -39 -18 7 16 20 39 55 50 77 l21 40 -40 -45 c-22 -25 -40 -48 -40 -52
0 -5 -5 -8 -11 -8 -7 0 -10 12 -7 30 4 26 2 29 -15 24 -19 -6 -19 -5 -3 17 19
27 22 49 4 31 -15 -15 -48 -16 -48 0 0 6 -7 3 -15 -8 -13 -17 -14 -16 -4 13 6
17 18 38 27 45 13 11 15 10 9 -11 -9 -38 8 -11 27 42 10 27 15 51 12 54 -3 4
-6 -1 -6 -10 0 -19 -68 -93 -77 -84 -3 4 -7 15 -8 25 -1 9 -5 24 -8 32 -7 19
-19 127 -18 163 1 20 -3 27 -18 27 -11 0 -23 5 -26 10 -10 16 -19 12 -38 -21
-10 -19 -23 -29 -31 -26 -20 8 -56 -21 -56 -44 0 -10 -7 -19 -15 -19 -9 0 -12
6 -9 18 4 11 -1 8 -14 -8 -27 -33 -37 -20 -24 30 6 25 6 42 0 46 -15 9 -22 -4
-22 -41 0 -22 -5 -35 -13 -35 -21 0 -34 49 -32 112 3 67 -6 84 -17 36 -4 -18
-9 -36 -10 -40 -1 -5 -2 -14 -3 -21 0 -7 -8 -22 -16 -33 -15 -18 -16 -15 -11
36 3 30 3 47 0 38 -10 -34 -24 -18 -24 28 0 30 -4 44 -12 42 -6 -2 -12 -12
-14 -22 -3 -20 -14 -35 -14 -18 0 6 -5 23 -12 39 -6 15 -12 34 -14 41 -1 8 -6
17 -9 20 -9 8 4 -78 14 -96 11 -20 1 -70 -16 -76 -11 -5 -13 -2 -9 10 3 8 -1
22 -9 31 -8 8 -13 18 -11 22 2 3 7 26 11 50 5 33 3 42 -7 39 -8 -3 -14 -23
-14 -52 -3 -83 -22 -78 -31 8 -4 38 -10 56 -19 56 -13 0 -15 -9 -18 -77 -1
-18 -14 -33 -28 -33 -4 0 -10 17 -13 38 -10 59 -15 70 -31 76 -9 4 -18 -3 -24
-19 -11 -30 -25 -34 -17 -5 3 13 0 20 -9 20 -7 0 -18 9 -24 20 -12 22 -15 23
-45 10z m-355 -102 c0 -18 -2 -20 -9 -8 -6 8 -7 18 -5 22 9 14 14 9 14 -14z
m340 1 c0 -6 -4 -7 -10 -4 -5 3 -10 11 -10 16 0 6 5 7 10 4 6 -3 10 -11 10
-16z m97 -21 c-3 -7 -5 -2 -5 12 0 14 2 19 5 13 2 -7 2 -19 0 -25z m-1 -54
c-3 -9 -6 -34 -6 -56 0 -57 -11 -41 -14 21 -2 39 1 51 12 51 9 0 12 -6 8 -16z
m161 -26 c-3 -8 -6 -5 -6 6 -1 11 2 17 5 13 3 -3 4 -12 1 -19z m-313 -34 c3
-8 2 -12 -4 -9 -6 3 -10 10 -10 16 0 14 7 11 14 -7z m318 -21 c-5 -24 -6 -25
-12 -8 -8 22 -2 47 10 40 4 -2 5 -17 2 -32z m-145 -5 c-3 -8 -6 -5 -6 6 -1 11
2 17 5 13 3 -3 4 -12 1 -19z m514 -5 c-12 -20 -14 -14 -5 12 4 9 9 14 11 11 3
-2 0 -13 -6 -23z m-41 -43 c0 -5 -5 -10 -11 -10 -5 0 -7 5 -4 10 3 6 8 10 11
10 2 0 4 -4 4 -10z m-690 -35 c0 -5 -5 -3 -10 5 -5 8 -10 20 -10 25 0 6 5 3
10 -5 5 -8 10 -19 10 -25z m853 5 c-3 -12 -8 -19 -11 -16 -5 6 5 36 12 36 2 0
2 -9 -1 -20z m-163 -14 c0 -2 -7 -17 -15 -32 l-15 -29 3 33 c1 18 8 32 15 32
6 0 12 -2 12 -4z m30 -36 c-6 -11 -13 -20 -16 -20 -2 0 0 9 6 20 6 11 13 20
16 20 2 0 0 -9 -6 -20z m137 -27 c-5 -12 -16 -23 -23 -23 -8 0 -11 -6 -8 -15
4 -8 1 -15 -5 -15 -6 0 -11 7 -11 16 0 8 -7 22 -15 31 -12 12 -19 12 -30 3 -8
-7 -12 -17 -8 -23 3 -6 1 -7 -5 -3 -7 4 -12 2 -12 -4 0 -6 -4 -8 -10 -5 -5 3
-10 1 -10 -6 0 -7 -3 -9 -7 -6 -3 4 4 17 16 28 12 12 20 27 17 35 -10 25 16
26 42 1 23 -22 29 -23 40 -11 7 8 10 14 6 14 -3 0 -1 7 6 15 19 22 31 -1 17
-32z m-1037 5 c0 -6 -6 -5 -15 2 -8 7 -15 14 -15 16 0 2 7 1 15 -2 8 -4 15
-11 15 -16z m105 -66 c-5 -5 -83 36 -91 49 -4 7 16 -1 44 -17 28 -16 49 -30
47 -32z m969 -56 c-3 -9 -10 -16 -15 -16 -5 0 -4 9 3 20 14 22 21 20 12 -4z
m63 -43 c-16 -16 -17 -16 -17 3 0 26 11 37 24 24 7 -7 5 -16 -7 -27z m303 -77
c0 -8 -4 -18 -10 -21 -5 -3 -10 3 -10 14 0 12 5 21 10 21 6 0 10 -6 10 -14z
m-42 -34 c2 -7 -5 -12 -17 -12 -14 0 -19 5 -14 15 6 17 25 15 31 -3z m-149 5
c-2 -1 -13 -9 -24 -17 -19 -14 -19 -14 -6 3 7 9 18 17 24 17 6 0 8 -1 6 -3z
m-9 -57 c0 -5 -5 -10 -11 -10 -5 0 -7 5 -4 10 3 6 8 10 11 10 2 0 4 -4 4 -10z
m-520 -128 c0 -5 -7 -17 -15 -28 -14 -18 -14 -17 -4 9 12 27 19 34 19 19z
m-1333 -88 c-3 -3 -12 -4 -19 -1 -8 3 -5 6 6 6 11 1 17 -2 13 -5z m-182 -54
c3 -5 1 -10 -4 -10 -6 0 -11 5 -11 10 0 6 2 10 4 10 3 0 8 -4 11 -10z m150 0
c-3 -5 -15 -10 -26 -10 -10 0 -19 5 -19 10 0 6 12 10 26 10 14 0 23 -4 19 -10z
m-115 -29 c0 -11 -5 -23 -11 -27 -16 -9 -30 18 -17 33 15 19 28 16 28 -6z
m900 -5 c0 -10 -115 -89 -129 -89 -9 0 -20 -3 -26 -7 -5 -3 -23 -3 -40 1 -32
7 -24 10 37 13 25 2 55 15 95 44 60 43 63 44 63 38z m1128 -93 c-10 -2 -26 -2
-35 0 -10 3 -2 5 17 5 19 0 27 -2 18 -5z m-431 -25 c-3 -8 -6 -5 -6 6 -1 11 2
17 5 13 3 -3 4 -12 1 -19z m480 16 c-3 -3 -12 -4 -19 -1 -8 3 -5 6 6 6 11 1
17 -2 13 -5z m68 -14 c7 -12 -12 -12 -40 0 -18 8 -17 9 7 9 15 1 30 -3 33 -9z
m-516 -62 c12 -21 20 -38 18 -38 -7 0 -47 65 -47 75 0 10 1 8 29 -37z m478 26
c-3 -3 -12 -4 -19 -1 -8 3 -5 6 6 6 11 1 17 -2 13 -5z m-182 -44 c8 -13 -15
-13 -35 0 -12 8 -11 10 7 10 12 0 25 -4 28 -10z m211 -27 c-1 -2 -24 0 -50 3
-26 4 -42 10 -36 14 10 6 93 -10 86 -17z m-465 -20 c13 -16 12 -17 -3 -4 -17
13 -22 21 -14 21 2 0 10 -8 17 -17z m-130 -20 c13 -16 12 -17 -3 -4 -17 13
-22 21 -14 21 2 0 10 -8 17 -17z m595 -18 c10 -8 15 -14 9 -14 -5 0 -19 6 -29
14 -11 8 -15 15 -10 15 6 0 19 -7 30 -15z m-207 -192 c19 -13 30 -23 25 -23
-11 0 -84 49 -84 56 0 6 9 1 59 -33z m-422 -75 c-2 -13 -4 -5 -4 17 -1 22 1
32 4 23 2 -10 2 -28 0 -40z m733 0 c0 -6 -6 -5 -15 2 -8 7 -15 14 -15 16 0 2
7 1 15 -2 8 -4 15 -11 15 -16z m-16 -44 c14 -8 32 -27 41 -41 17 -25 17 -25
-2 -12 -11 8 -42 34 -69 58 -45 41 -39 40 30 -5z m-827 14 c-3 -8 -6 -5 -6 6
-1 11 2 17 5 13 3 -3 4 -12 1 -19z m106 -45 c-7 -71 -11 -75 -12 -10 -1 31 3
57 8 57 5 0 6 -21 4 -47z m-86 5 c-3 -8 -6 -5 -6 6 -1 11 2 17 5 13 3 -3 4
-12 1 -19z m698 -16 c-3 -3 -11 0 -18 7 -9 10 -8 11 6 5 10 -3 15 -9 12 -12z
m-225 -27 c13 -14 21 -25 18 -25 -2 0 -15 11 -28 25 -13 14 -21 25 -18 25 2 0
15 -11 28 -25z m103 -109 c16 -23 17 -27 4 -17 -10 8 -28 28 -40 45 -16 23
-17 27 -4 17 10 -8 28 -28 40 -45z m127 32 c0 -6 -6 -5 -15 2 -8 7 -15 14 -15
16 0 2 7 1 15 -2 8 -4 15 -11 15 -16z m75 -66 c-3 -3 -20 9 -38 27 l-32 34 38
-28 c21 -15 35 -30 32 -33z m35 34 c0 -3 -4 -8 -10 -11 -5 -3 -10 -1 -10 4 0
6 5 11 10 11 6 0 10 -2 10 -4z m-463 -48 c-3 -8 -6 -5 -6 6 -1 11 2 17 5 13 3
-3 4 -12 1 -19z m653 -13 c19 -19 32 -35 29 -35 -3 0 -20 16 -39 35 -19 19
-32 35 -29 35 3 0 20 -16 39 -35z m-1080 -84 c0 -6 -4 -13 -10 -16 -5 -3 -10
1 -10 9 0 9 5 16 10 16 6 0 10 -4 10 -9z m257 -53 c-3 -8 -6 -5 -6 6 -1 11 2
17 5 13 3 -3 4 -12 1 -19z m233 -23 c0 -5 -5 -3 -10 5 -5 8 -10 20 -10 25 0 6
5 3 10 -5 5 -8 10 -19 10 -25z m-223 -82 c-2 -16 -4 -5 -4 22 0 28 2 40 4 28
2 -13 2 -35 0 -50z m-1397 51 c0 -12 -24 -50 -39 -61 -14 -10 -14 -12 2 -18
24 -10 21 -32 -5 -41 -13 -5 -26 -7 -31 -6 -4 1 -6 -3 -5 -9 2 -6 -21 -20 -49
-31 -49 -19 -54 -20 -78 -4 -14 9 -25 21 -25 26 0 8 33 49 105 133 11 12 30
17 70 17 30 0 55 -3 55 -6z m266 -55 c4 -8 1 -8 -14 0 -12 6 -24 16 -28 22 -4
8 -1 8 14 0 12 -6 24 -16 28 -22z m1542 6 c-3 -3 -9 2 -12 12 -6 14 -5 15 5 6
7 -7 10 -15 7 -18z m-264 -1 c3 -8 2 -12 -4 -9 -6 3 -10 10 -10 16 0 14 7 11
14 -7z m-413 -67 c-16 -16 -32 4 -24 31 l6 23 14 -21 c11 -16 12 -25 4 -33z
m-810 16 c13 -16 12 -17 -3 -4 -17 13 -22 21 -14 21 2 0 10 -8 17 -17z m893
-20 c-8 -47 -23 -78 -24 -49 0 20 21 86 27 86 2 0 1 -17 -3 -37z m706 -15 c0
-5 9 -17 21 -29 11 -11 18 -23 15 -26 -6 -6 -36 22 -36 33 0 4 -10 19 -22 32
l-23 25 23 -14 c12 -8 22 -17 22 -21z m-1820 8 c0 -3 -4 -8 -10 -11 -5 -3 -10
-1 -10 4 0 6 5 11 10 11 6 0 10 -2 10 -4z m1050 -11 c0 -3 -7 -22 -17 -43 -18
-42 -31 -23 -14 21 9 23 31 38 31 22z m760 -40 c18 -19 30 -38 25 -42 -4 -5
-10 -2 -12 5 -3 8 -18 27 -34 43 -15 16 -25 29 -21 29 5 0 23 -16 42 -35z
m-650 -16 c0 -4 -5 -11 -10 -14 -6 -4 -10 -3 -9 2 4 24 -2 43 -13 37 -7 -5 -8
-3 -3 6 6 10 11 9 22 -5 7 -11 13 -22 13 -26z m584 16 c-4 -8 -8 -15 -10 -15
-2 0 -4 7 -4 15 0 8 4 15 10 15 5 0 7 -7 4 -15z m-2059 -5 c3 -5 -1 -10 -9
-10 -9 0 -16 5 -16 10 0 6 4 10 9 10 6 0 13 -4 16 -10z m269 -16 c3 -8 2 -12
-4 -9 -6 3 -10 10 -10 16 0 14 7 11 14 -7z m1107 -11 c-12 -20 -14 -14 -5 12
4 9 9 14 11 11 3 -2 0 -13 -6 -23z m139 23 c0 -3 -4 -8 -10 -11 -5 -3 -10 -1
-10 4 0 6 5 11 10 11 6 0 10 -2 10 -4z m445 -44 c-8 -8 -25 17 -25 38 0 9 6 6
16 -8 9 -13 13 -26 9 -30z m154 2 c19 -24 31 -47 27 -51 -3 -3 -1 -12 5 -19 6
-8 6 -14 0 -18 -5 -3 -12 7 -16 23 -3 17 -20 47 -36 67 -31 39 -33 44 -21 44
4 0 22 -21 41 -46z m-681 -39 c0 -43 -4 -73 -9 -69 -5 3 -7 10 -4 15 4 5 2 9
-2 9 -10 0 -8 94 2 110 11 18 12 12 13 -65z m182 66 c0 -6 -4 -13 -10 -16 -5
-3 -10 1 -10 9 0 9 5 16 10 16 6 0 10 -4 10 -9z m-47 -89 c3 -29 1 -52 -4 -52
-5 0 -10 6 -10 13 -1 6 -3 23 -5 37 -6 42 -7 54 -5 75 2 20 2 20 11 -1 4 -11
10 -44 13 -72z m342 78 c3 -5 1 -10 -4 -10 -6 0 -11 5 -11 10 0 6 2 10 4 10 3
0 8 -4 11 -10z m-1580 -27 c-8 -15 -11 -31 -8 -36 3 -6 1 -7 -6 -3 -23 15 -8
53 26 65 1 1 -4 -11 -12 -26z m1540 -23 c-3 -5 -2 -18 3 -27 15 -30 25 -113
13 -113 -6 0 -11 11 -11 25 0 14 -4 25 -9 25 -5 0 -7 8 -4 19 2 10 -3 42 -11
72 l-16 53 20 -22 c12 -12 18 -27 15 -32z m319 34 c11 -29 6 -38 -10 -18 -15
19 -15 18 -11 -3 5 -23 -7 -31 -18 -13 -6 10 15 50 26 50 4 0 10 -7 13 -16z
m-718 -31 c-11 -11 -19 6 -11 24 8 17 8 17 12 0 3 -10 2 -21 -1 -24z m194 27
c0 -5 -7 -10 -16 -10 -8 0 -12 5 -9 10 3 6 10 10 16 10 5 0 9 -4 9 -10z m-280
-32 c0 -5 -4 -8 -10 -8 -5 0 -10 10 -10 23 0 18 2 19 10 7 5 -8 10 -18 10 -22z
m230 13 c14 -28 13 -51 -4 -51 -9 0 -12 7 -9 20 3 11 0 27 -7 35 -8 10 -9 15
-2 15 6 0 16 -9 22 -19z m-1176 -15 c-3 -7 0 -24 5 -39 8 -19 6 -34 -5 -56
-17 -35 -43 -57 -29 -25 9 21 9 40 -1 98 -5 27 -3 37 5 32 6 -4 11 -2 11 4 0
6 4 9 10 5 5 -3 7 -11 4 -19z m1586 15 c0 -5 -7 -11 -15 -15 -15 -5 -20 5 -8
17 9 10 23 9 23 -2z m-1536 -22 c-3 -5 -10 -7 -15 -3 -5 3 -7 10 -3 15 3 5 10
7 15 3 5 -3 7 -10 3 -15z m83 -1 c-3 -8 -6 -5 -6 6 -1 11 2 17 5 13 3 -3 4
-12 1 -19z m947 -48 c-9 -8 -21 20 -18 43 4 35 5 34 14 -3 5 -19 6 -37 4 -40z
m570 48 c8 -13 17 -34 20 -48 7 -23 6 -24 -6 -5 -12 20 -14 25 -17 45 0 6 -11
15 -23 20 -17 6 -19 9 -6 9 10 1 24 -9 32 -21z m-1804 -20 c0 -4 -6 -5 -14 -2
-8 3 -12 12 -9 21 5 12 7 12 14 1 5 -7 9 -16 9 -20z m1384 11 c-3 -5 -10 -7
-15 -3 -5 3 -7 10 -3 15 3 5 10 7 15 3 5 -3 7 -10 3 -15z m146 11 c0 -5 -4
-10 -10 -10 -5 0 -10 5 -10 10 0 6 5 10 10 10 6 0 10 -4 10 -10z m-330 -10 c0
-5 -9 -10 -20 -10 -11 0 -20 5 -20 10 0 6 9 10 20 10 11 0 20 -4 20 -10z m560
-16 c0 4 6 1 13 -6 14 -14 17 -111 4 -124 -4 -5 -5 -1 -1 9 3 10 1 17 -5 17
-6 0 -11 -5 -11 -11 0 -5 -5 -7 -12 -3 -8 5 -5 12 8 23 17 13 18 21 10 49 -5
17 -15 32 -22 32 -8 0 -14 10 -14 23 1 21 1 22 15 3 8 -11 15 -16 15 -12z
m-273 10 c-3 -4 1 -20 9 -36 9 -17 11 -27 5 -23 -6 3 -14 -1 -17 -10 -4 -11
-13 -14 -28 -9 -17 5 -19 4 -8 -7 14 -16 16 -39 2 -39 -5 0 -10 9 -10 20 0 11
-4 20 -8 20 -13 0 -7 43 7 48 6 2 10 -1 9 -6 -2 -6 0 -10 5 -11 22 -3 27 1 27
20 0 18 -5 21 -30 17 -36 -5 -39 -1 -7 12 26 10 53 13 44 4z m-296 -57 c-6 -6
-14 -7 -18 -2 -5 4 -3 10 4 12 7 2 10 12 7 21 -4 14 -3 13 6 -1 9 -14 9 -22 1
-30z m147 2 c1 -16 3 -34 5 -39 1 -4 -2 -9 -7 -9 -5 -1 -11 17 -13 39 -2 22 0
40 4 40 5 0 10 -14 11 -31z m52 21 c0 -5 -4 -10 -10 -10 -5 0 -10 5 -10 10 0
6 5 10 10 10 6 0 10 -4 10 -10z m365 -21 c6 -19 0 -38 -9 -28 -10 12 -16 49
-7 49 5 0 13 -9 16 -21z m-1663 -6 c24 -22 23 -43 -2 -36 -11 3 -17 9 -14 15
3 5 0 15 -6 23 -17 20 -1 19 22 -2z m1058 -18 c0 -34 -13 -76 -21 -64 -4 7 -3
23 2 36 5 14 5 23 -1 23 -6 0 -10 7 -10 15 0 9 6 12 15 9 8 -4 15 -12 15 -19z
m788 -10 c-3 -3 -9 2 -12 12 -6 14 -5 15 5 6 7 -7 10 -15 7 -18z m-756 -17
c-8 -8 -9 -4 -5 13 4 13 8 18 11 10 2 -7 -1 -18 -6 -23z m748 -28 c0 -5 -5
-10 -11 -10 -5 0 -7 5 -4 10 3 6 8 10 11 10 2 0 4 -4 4 -10z m-1811 -4 c-2 -2
-15 -9 -29 -15 -24 -11 -24 -11 -6 3 16 13 49 24 35 12z"/>
<path d="M507 2309 c3 -10 9 -16 14 -13 13 8 11 21 -5 27 -10 4 -12 0 -9 -14z"/>
<path d="M2335 2070 c-3 -5 -2 -10 4 -10 5 0 13 5 16 10 3 6 2 10 -4 10 -5 0
-13 -4 -16 -10z"/>
<path d="M2300 2050 c-9 -6 -10 -10 -3 -10 6 0 15 5 18 10 8 12 4 12 -15 0z"/>
<path d="M2332 2025 c-18 -19 -29 -35 -24 -35 4 0 23 16 42 35 19 19 30 35 24
35 -5 0 -24 -16 -42 -35z"/>
<path d="M2311 1897 c-13 -21 -12 -21 5 -5 10 10 16 20 13 22 -3 3 -11 -5 -18
-17z"/>
<path d="M785 1261 c-11 -19 5 -31 39 -31 35 0 55 -17 100 -84 14 -21 26 -33
26 -27 0 15 -54 95 -82 121 -24 22 -54 27 -42 8 4 -7 -2 -5 -13 5 -14 12 -23
15 -28 8z"/>
<path d="M756 1191 c6 -27 4 -31 -15 -31 -12 0 -19 -4 -16 -10 3 -5 19 -10 36
-10 18 0 29 -5 29 -14 0 -7 7 -19 16 -26 17 -15 102 -30 121 -23 21 8 -41 88
-79 102 -29 11 -67 27 -90 39 -4 2 -5 -10 -2 -27z m101 -70 c0 -26 -3 -29 -19
-20 -27 14 -22 49 7 49 6 0 12 -13 12 -29z m63 -31 c0 -5 -4 -10 -10 -10 -5 0
-10 5 -10 10 0 6 5 10 10 10 6 0 10 -4 10 -10z"/>
<path d="M1108 1104 c-21 -9 -38 -20 -38 -25 0 -12 2 -12 39 7 20 10 50 15 81
12 57 -4 54 8 -5 16 -26 4 -54 0 -77 -10z"/>
<path d="M1280 1057 c14 -14 36 -28 50 -32 31 -9 27 -5 -30 30 -45 27 -45 27
-20 2z"/>
<path d="M1085 1039 l-20 -22 20 8 c41 16 60 12 57 -13 -4 -26 22 -40 42 -23
10 9 16 9 21 1 4 -7 -2 -14 -14 -17 -39 -10 -11 -21 44 -18 63 4 125 22 125
36 0 6 -4 8 -8 5 -16 -10 -108 16 -125 37 -27 31 -115 35 -142 6z"/>
<path d="M1120 976 c0 -2 7 -7 16 -10 8 -3 12 -2 9 4 -6 10 -25 14 -25 6z"/>
<path d="M840 870 c0 -6 7 -10 15 -10 8 0 15 2 15 4 0 2 -7 6 -15 10 -8 3 -15
1 -15 -4z"/>
<path d="M915 850 c27 -12 43 -12 25 0 -8 5 -22 9 -30 9 -10 0 -8 -3 5 -9z"/>
<path d="M763 807 c-58 -40 -46 -71 43 -109 93 -40 197 -78 212 -78 20 1 -113
130 -134 130 -7 0 -23 18 -34 40 -23 46 -40 49 -87 17z"/>
<path d="M465 681 c-3 -5 -1 -12 5 -16 6 -4 7 -11 4 -17 -5 -8 -1 -9 11 -4 10
4 35 -2 59 -13 23 -11 48 -21 56 -23 8 -2 18 -7 22 -13 14 -19 20 5 9 34 -12
27 -16 28 -52 24 -40 -6 -49 3 -26 26 10 10 7 10 -14 1 -20 -9 -32 -9 -47 -1
-13 7 -23 7 -27 2z"/>
<path d="M820 476 c0 -2 14 -14 30 -26 17 -12 30 -19 30 -16 0 2 -13 14 -30
26 -16 12 -30 19 -30 16z"/>
<path d="M953 386 c15 -14 33 -26 40 -26 13 1 -16 26 -48 41 -13 7 -10 1 8
-15z"/>
<path d="M1246 383 c-6 -14 -5 -15 5 -6 7 7 10 15 7 18 -3 3 -9 -2 -12 -12z"/>
<path d="M935 330 c-4 -17 -5 -34 -2 -36 3 -3 8 9 12 26 4 17 5 34 2 36 -3 3
-8 -9 -12 -26z"/>
<path d="M905 175 c-4 -36 -5 -68 -2 -71 3 -3 15 0 27 6 12 6 19 14 16 17 -3
3 -12 1 -20 -6 -12 -10 -13 -2 -9 54 7 85 -3 85 -12 0z"/>
<path d="M1265 150 c-10 -11 -14 -20 -9 -20 5 0 15 9 22 20 7 11 11 20 9 20
-2 0 -12 -9 -22 -20z"/>
<path d="M950 99 c0 -6 -7 -8 -16 -5 -9 4 -13 2 -8 -5 4 -8 -1 -9 -15 -4 -19
6 -21 3 -21 -39 0 -44 1 -46 29 -46 16 0 31 6 35 15 3 8 11 15 17 15 8 0 8 -4
-1 -15 -11 -13 -6 -15 34 -15 27 0 45 4 41 9 -3 6 -14 8 -25 6 -24 -5 -25 8
-5 39 15 23 14 24 -19 40 -40 19 -46 20 -46 5z"/>
<path d="M1042 85 c4 -4 3 -14 -3 -22 -6 -7 -10 -13 -8 -14 2 0 15 -2 29 -5
23 -3 23 -2 8 10 -10 7 -15 15 -12 18 3 4 -1 9 -8 14 -7 4 -10 4 -6 -1z"/>
<path d="M1165 80 c-3 -5 -1 -10 4 -10 6 0 11 5 11 10 0 6 -2 10 -4 10 -3 0
-8 -4 -11 -10z"/>
<path d="M2019 42 c-23 -4 -12 -42 12 -42 20 0 22 5 11 30 -4 9 -14 14 -23 12z"/>
<path d="M1821 23 c-7 -8 -11 -16 -8 -19 2 -2 10 2 17 11 17 20 9 27 -9 8z"/>
<path d="M1095 22 c-38 -8 -40 -22 -2 -22 20 0 37 4 37 9 0 14 -12 18 -35 13z"/>
<path d="M1263 16 c0 -8 6 -12 14 -9 7 3 13 9 13 14 0 5 -6 9 -13 9 -8 0 -14
-6 -14 -14z"/>
</g>
</svg>
